<svg version="1.1" id="Слой_1" xmlns="http://www.w3.org/2000/svg" xmlns:xlink="http://www.w3.org/1999/xlink" x="0px" y="0px"
	 viewBox="0 0 1114.1 391.1" style="enable-background:new 0 0 1114.1 391.1;" xml:space="preserve">
<g id="Слой_2">
	<g id="Слой_1-2">
		<path class="st0" d="M549.4,235.8c0,0,21.2-16.6,41.5-35.7c1.2-1.1,7.9-7.3,9.2-8.8s3.9-3.9,5.4-5.7c15-16.8,28.3-33,42.5-51.4
			c1.4-1.8,2.8-3.6,4.2-5.4c11-14.3,20.8-29,28.4-44.4c0.7-1.4,1.3-2.8,1.8-4.3s1-2.9,1.5-4.3c0.5-1.7,1-3.3,1.3-5
			c2.7-9.6-0.5-23.5-14.2-23.5c-12.9-0.6-24.2,7.3-32.2,14.9c-1.5,1.4-3,2.8-4.3,4.3c-8.4,8.7-14.9,18.7-21.7,28.2
			c-1.3,1.8-2.5,3.6-3.7,5.3c-6,8.8-11.8,17.7-17.7,26.4c-1.1,1.8-2.2,3.6-3.3,5.4c-1.1,1.8-2.1,3.7-3.1,5.5c-1.2,2-2.5,4-3.7,6.1
			c-1.2,2-2.4,4.1-3.5,6.1c-1,1.8-2.1,3.6-3.1,5.3s-2,3.6-3,5.4c-1.1,2-2.2,4-3.3,6.1c-1.1,2.1-2.1,4.1-3.2,6.1
			c-1.2,2.1-2.3,4.1-3.4,6.1c-10,18.2-18.1,34.8-21.7,46.1c-1.2,3.8-2.2,7.4-3,10.7c-0.4,1.7-0.7,3.3-1,4.9c-1,9.9-3,19.4,1.2,29.4
			c0.6,1.6,1.4,3.1,2.3,4.6c3,4.9,7.8,8.3,13.4,9.5c15.3,3.6,30.7-1.2,43.4-7.1c2.3-1.1,4.5-2.2,6.7-3.5c8.3-4.8,16-10.5,22.9-17.2
			c1.6-1.4,3.3-2.9,5.2-4.5c9.1-8.1,20.6-18.7,30.1-28.6c3.6-3.7,6.9-7.3,9.9-10.6l2.9-3.2c0.9-1.3,1.9-2.5,3-3.6
			c5.2-5.1,12.5-9.3,10.9-16c-6.5,4.2-11.3,9.7-16.3,14.9c-1.2,1.2-2.5,2.4-3.9,3.5l-3.3,3.4c-11.8,11.9-25.7,25.5-38.5,36.5
			c-1.8,1.6-3.6,3.1-5.4,4.5c-7.8,6.1-15.4,12.5-24.7,16.4c-2.4,1-4.8,1.8-7.3,2.4c-12.9,3.1-34.7,3.7-38.1-9.8
			c-0.5-1.5-0.8-3-0.9-4.6c-0.2-1.9-0.2-3.8-0.1-5.7c0.5-7.7,9.8-37.7,26.3-72.8c0.7-1.5,1.4-2.9,2.1-4.4c0.8-2,1.7-4,2.6-6
			s1.8-3.9,2.7-5.9s2.1-4.1,3.2-6.2c3.2-6.1,7.2-12.2,10.7-18.3c0.7-1.2,1.4-2.5,2.1-3.7c1.1-1.8,2.1-3.6,3.2-5.4
			c4.2-7,8.4-14.1,13-21c1.1-1.7,2.3-3.5,3.5-5.2c7.6-9.6,14.4-20.4,23.7-29.3c1.5-1.5,3.2-2.9,4.9-4.3c6.7-4.7,14-12,22.8-9.6
			c8.1,2.4,4,10.9,3.2,17c-0.5,2-1.2,4-1.9,6c-5.4,14-13.4,27.4-22.7,40.5c-1.3,1.9-2.7,3.7-4.1,5.6c-14,18.7-29.3,36.9-47.3,53.8
			c-1.6,1.5-3.1,3.1-4.8,4.6c-11.3,10.8-24.2,22-38.7,33.3L549.4,235.8z"/>
		<path class="st0" d="M690.5,182.7l11.3-2.8c0,0,2.8-1.8,0,6.7s-25,37-32.7,52.8c0,0,36.3-36.2,59.3-46.4c0,0,12.1-7.4,19-6.3
			s12.4,1.6,16.3,10.2c0,0,0.8,2.3-2.7,8.9c-1.1,2-2.2,3.9-3.5,5.7c-10.5,16.9-29.9,35-25,54.5c1,2,2.4,3.8,4,5.3
			c1.6,1.5,3.5,2.6,5.5,3.4c6.8,2.4,14.8-0.1,21.8-4.6c1.8-1.1,3.5-2.4,5.1-3.7c7.1-3.5,7.9-14.4,16.8-12.6c0.8,0-1.6,3-1.5,4.8
			c-0.8,1.7-1.9,3.2-3,4.7c-10.7,13.2-26.9,20.7-43.9,20.2c-4.1,0-8.2-0.7-12-2.3c-1.8-0.7-3.4-1.7-4.9-2.8
			c-3.8-5-5.4-11.2-4.6-17.4c0.2-2,0.7-3.9,1.3-5.9c5.7-15.8,17.8-29.6,26.5-45c1.1-2.2,1.9-3.8,2.5-5.2c1.8-4,1.6-5-0.4-7.4
			c-2.7-3.3-14.5,1.6-19.7,4.8c-1.6,1-7.8,4.7-16.3,10.8c-1.7,1.2-3.5,2.5-5.3,3.9c-10.8,9-22.1,16.9-30.4,27.2c-1,1.1-2,2.2-3,3.3
			c-9,10.2-17.3,21.7-23,34.2c0,0-10,5.4-12.4,2.9s29.9-76.2,49.5-98.9C685.2,185.6,688.5,183.2,690.5,182.7z"/>
		<path class="st0" d="M830.2,190.9c-1.6,0.9-3.5,1.8-5.3,2.7s-3.6,1.8-5.1,2.8c-19.6,12.2-31.7,28.6-37.5,45.9
			c-0.5,1.3-1.1,2.7-1.5,4.1c-0.4,1.2-0.8,2.3-1.1,3.5c-1.1,3.4-1.9,7-2.3,10.6c-0.2,1.7-0.2,3.4,0,5.1
			c0.3,10.5,14.3,17.7,28.4,16.9c2.8-0.2,5.6-0.7,8.3-1.5c15.3-4.5,27.5-13.6,34.7-23.8c1.3,3.9,3.2,7.6,5.6,11
			c1.3,1.8,2.8,3.5,4.4,5.1c2.1,1.8,4.4,3.4,6.8,4.6c32.2,10.9,62.3-13.8,74-34.3c1-1.8,2.2-3.6,3.3-5.4c1.1-1.6,2-3.4,2.8-5.2
			c-2.4,1.2-4.6,2.5-6.8,4c-2.4,1.6-4.7,3.4-6.9,5.3c-11.8,11.6-23.5,25.4-44.9,28.3c-8.4,1.3-16.8-2.5-21.4-9.7
			c-1-1.7-1.7-3.5-2.2-5.5c-1.9-9.2,3.8-18.6,8.2-26.9c0.9-1.5,1.8-3,2.8-4.4c2.8-4.4,5.9-8.8,8.8-13.3c1.1-1.6,2.2-3.2,3.3-4.7
			c1.8-2.7,4.2-4.9,6.2-7.9c1-1.1,1.9-2.1,2.8-3c0,0,2-1.9,1.9-3.8s-4.3-2.5-7.8-2.7c-10.3,3.9-13.5,12.4-18.6,19.7
			c-1.1,1.7-2.2,3.4-3.2,5.1c-4.6,7.1-8.2,14.6-12.1,21.7c-0.8,1.4-1.6,2.8-2.4,4.2c-6.3,14.9-21.7,29.1-44.9,31.3
			c-2.8,0.1-5.6-0.3-8.3-1.1c-5.7-1.7-8.1-5.7-9.3-9.5c-0.2-1.8-0.1-3.6,0.4-5.3c0.4-1.4,0.8-2.8,1.4-4.1c0.6-1.4,1.2-2.8,1.9-4.2
			c6.9-20,21-36.8,39.5-47c1.9-1,3.9-2,6-2.8c6.3-2.6,13.1-4,19.9-4.1c8.9,0,15.3,6.2,13.5,12.7c-0.2,1.7-0.6,3.3-1.4,4.8
			c4-1.1,7.3-2.8,9-5.7c0.8-1.2,1.4-2.6,1.6-4c0.7-5.6-2.5-11.3-9.8-14.1c-11.3-4-24.2-1.1-35.4,1.6
			C835.9,188.5,832.4,190.1,830.2,190.9z"/>
		<path class="st0" d="M1040,103.2c-13.1-0.3-25.9-3.9-39-4.6c-1.5-0.2-2.9-0.3-4.3-0.5c-4.3-0.6-8.7-1.2-12.9-1.8
			c-1.7-0.3-3.4-0.5-5.2-0.7c-16.8-1.7-33.3-4.1-50.2-0.7l-3.6,0.6l-3.6,0.7c-17.6,4.4-33.6,12.8-50.2,20.5c-2.1,1-4,1.8-5.8,2.7
			c-5.1,2.4-8.5,4.3-11,6.3l1.5,0.9c0.3,0,0.5,0.1,0.8,0.3l1.1,0.6c1.2,0.4,2.4,0.9,3.7,1.2c1.7,0,3.5-0.1,5.2-0.5
			c0.8-0.2,1.6-0.5,2.4-0.8c1.1-0.5,2-1.2,3-1.8c0.9-0.8,2-1.6,3.2-2.4c15.7-10.4,32.8-18.9,50.8-21.8c1.3-0.1,2.6-0.2,3.9-0.3
			c17.1-1,33.6,2.6,50.8,3.8l5.3,0.7l4,0.5l4,0.5c17,1.9,34.1,4.3,51.2,3.9c1.6,0,3.2,0,4.8-0.1c1.9,0,3.7-0.1,5.5-0.2
			c12.9-0.6,25.5-2.1,38.2-5.6c1.9-0.6,3.8-1.2,5.7-1.8c5.3-1.8,10.2-4.2,14.8-7.3c0,0-5.2,1.8-14,3.7c-1.8,0.4-3.7,0.8-5.7,1.2
			c-13.4,1.8-26.9,4.3-40.3,3.8c-1.9-0.1-3.8-0.2-5.7-0.4c-1.4-0.1-2.8-0.2-4.2-0.2S1041.4,103.3,1040,103.2z"/>
		<path class="st0" d="M1072.2,45.1c-12.9-0.6-24.2,7.3-32.2,14.9c-1.5,1.4-3,2.8-4.3,4.3c-8.4,8.7-14.9,18.7-21.7,28.2
			c-1.2,1.8-2.5,3.5-3.7,5.3c-6,8.8-11.8,17.7-17.7,26.4c-1.1,1.8-2.2,3.6-3.3,5.4s-2.1,3.7-3.1,5.5c-1.2,2-2.5,4-3.7,6.1
			s-2.4,4.1-3.5,6.1c-1,1.8-2.1,3.6-3.1,5.3s-2,3.6-3,5.4c-1.1,2-2.2,4-3.3,6.1s-2.1,4.1-3.2,6.1c-1.2,2.1-2.3,4.1-3.4,6.1
			c-10,18.2-18.1,34.8-21.7,46.1c-1.2,3.8-2.2,7.4-3,10.7c-0.4,1.7-0.7,3.3-1,4.9c-2.7,15.2-3.6,40.6,22.2,44.4
			c2.2,0.4,4.4,0.6,6.6,0.8c11,0.6,21.8-1.9,32-6.1c2.9-1.2,5.8-2.6,8.5-4c8.9-4.4,15.8-10.2,22.9-16.1c-1.6,0-3.1,0-4.7,0
			c-8.3,3.6-16.3,7.7-24.8,11.2c-2.5,0.9-5,1.7-7.5,2.4c-5.5,1.4-11.2,2-16.8,1.6c-2.9-0.4-5.7-1.1-8.5-2.1c-2.6-1-5.1-2.3-7.4-3.9
			c-6-3.8-9.6-10.3-9.6-17.4c0.1-2,0.6-4,1.3-5.8c1-2.3,2.2-4.5,3.7-6.5c1.6-2.2,3.4-4.3,5.4-6.3c23.8-20.6,42.2-43.2,61.6-65.1
			c1.8-2.1,3.7-4.3,5.5-6.4c7.3-8.6,14.4-17.5,21.5-26.7c1.4-1.8,2.8-3.6,4.2-5.4c11-14.3,20.8-29,28.4-44.4
			c0.7-1.4,1.3-2.8,1.8-4.3c0.5-1.4,1-2.9,1.5-4.3c0.5-1.7,1-3.3,1.3-5C1089.2,59,1085.9,45.1,1072.2,45.1z M1074.6,73.5
			c-0.5,2-1.2,4-1.9,6c-5.4,14-13.4,27.4-22.7,40.5c-1.3,1.9-2.7,3.7-4.1,5.6c-8.4,11.2-17.3,22.3-26.9,32.9
			c-1.6,1.8-3.2,3.6-4.9,5.3c-17,15.9-33.6,32.6-52,47.9c5.8-13.1,9.7-26.9,17-40.3c0.8-2,1.7-4,2.6-6s1.8-3.9,2.7-5.9
			s2.1-4.1,3.2-6.2c3.2-6.1,7.2-12.2,10.7-18.3c0.7-1.2,1.4-2.5,2.1-3.7c1.1-1.8,2.1-3.6,3.2-5.4c4.2-7,8.4-14.1,13-21
			c1.1-1.7,2.3-3.5,3.5-5.2c7.6-9.6,14.4-20.4,23.7-29.3c1.5-1.5,3.2-2.9,4.9-4.3c6.7-4.7,14-12,22.8-9.6
			C1079.5,59,1075.4,67.5,1074.6,73.5L1074.6,73.5z"/>
		<path class="st0" d="M414.7,40.8c-12.9-0.6-24.2,7.3-32.2,14.9c-1.5,1.4-3,2.8-4.3,4.3c-8.4,8.7-14.9,18.6-21.7,28.2
			c-1.2,1.8-2.5,3.5-3.7,5.3c-6,8.8-11.8,17.7-17.7,26.4c-1.1,1.8-2.2,3.6-3.3,5.4c-1.1,1.8-2.1,3.7-3.1,5.5c-1.2,2-2.5,4-3.7,6.1
			s-2.4,4.1-3.5,6.1c-1,1.8-2.1,3.6-3.1,5.3c-1,1.8-2,3.6-3,5.4c-1.1,2-2.2,4-3.3,6.1s-2.1,4.1-3.2,6.1c-1.2,2.1-2.3,4.1-3.4,6.1
			c-10,18.2-18.1,34.8-21.7,46.1s-5.2,20.8-5.3,28.4c0,0.1,0,0.3,0,0.4c1.3-0.9,2.7-1.8,4-2.6c3.7,0.2,6.6-3.4,10.5-2.7
			c1-6.6,4.9-11.6,11.1-16.6c1.7-1.5,3.6-3.2,5.5-5c9.7-8.9,21.9-20.5,30.7-31.2l3.4-4.1l4.2-5c15-16.8,29.6-33.7,43.7-52.1
			c1.4-1.8,2.8-3.6,4.2-5.4c11-14.3,20.8-29,28.4-44.4c0.7-1.4,1.3-2.8,1.8-4.3c0.5-1.4,1-2.9,1.5-4.3c0.5-1.7,1-3.3,1.3-5
			C431.6,54.7,428.4,40.8,414.7,40.8z M417,69.2c-0.5,2-1.2,4-1.9,6c-5.4,14-13.4,27.4-22.7,40.5c-1.3,1.9-2.7,3.7-4.1,5.6
			c-14,18.7-29.4,36.9-47.3,53.8c-1.6,1.5-3.1,3.1-4.8,4.6c-9.6,9.1-20.3,18.5-32.1,28.1c4-10.8,9.2-23.1,15.3-36.2
			c0.7-1.5,1.4-2.9,2.1-4.4c0.8-2,1.7-4,2.6-6c0.9-2,1.8-3.9,2.7-5.9s2.1-4.1,3.2-6.2c3.1-6.1,7.2-12.2,10.7-18.3
			c0.7-1.2,1.4-2.5,2.1-3.7c1.1-1.8,2.1-3.6,3.2-5.4c4.2-7,8.4-14.1,13-21c1.1-1.7,2.3-3.5,3.5-5.2c7.6-9.6,14.4-20.4,23.7-29.3
			c1.5-1.5,3.2-2.9,4.9-4.3c6.7-4.7,14-12,22.8-9.6C421.9,54.7,417.9,63.1,417,69.2L417,69.2z"/>
		<path class="st0" d="M538.1,231.6c-2.3,1.8-4.5,3.6-6.8,5.4c-21.4,16.9-50.6,46-86.1,33.2c-1.4-1-2.6-2.5-3.3-4.1
			c-1.2-3.1-1.3-6.6-0.3-9.8c0.2-1.6,0.6-3.2,1-5c0.6-2.4,1.3-4.8,2.2-7.2c15.4-7.8,33.9-12.9,47.5-23.4c2.4-1.6,4.7-3.2,6.9-4.9
			c6.5-4.9,12.2-10.7,16.9-17.3c1.6-2.4,3.1-5,4.4-7.6c0.9-1.7,1.6-3.6,1.8-5.6c0.4-6.4-5.7-10.7-5.7-10.7
			c-3.7-1.9-7.8-2.8-11.9-2.4c-2.7,0.3-5.4,0.7-8.1,1.3c-3.1,0.8-6,2-8.9,3.4c-28.5,12.9-44.1,35.5-55.3,57.3
			c-0.6,1.3-1.2,2.5-1.7,3.7c-1,2.4-1.9,4.6-2.6,6.7c-2.3,1.2-4.7,2.5-7,3.7c-10.9,6.7-21.8,14.9-34.1,20.3c-2.5,1.1-5,2-7.6,2.9
			c-8.7,2.9-21.4,4.4-27.2-2.2c-10.7-14.6,4.9-28.4,12-41.7c1-1.5,2.1-3,3.2-4.6s2.2-3.1,3.4-4.6c1.3-1.8,2.4-3.6,3.5-5.3
			c1.3-1.8,2.4-3.7,3.5-5.7c3.5-6.5,2.7-8.9,2.7-8.9c-3.9-8.7-9.4-9.2-16.3-10.2s-19,6.3-19,6.3c-11.5,5.1-26.3,16.7-38.3,27.1
			c-2.4,2.1-4.7,4.1-6.8,6c-5.3,4.5-9.2,8.9-14.1,13.2c1.9-2.2,1.9-5.8,4.5-8.3c0.9-1.5,1.9-3.1,2.9-4.7c3.1-4.8,6.5-9.9,9.8-14.9
			c-2.3-0.1-4.5-1.3-4.5-3.5c-0.1-8.7,3.3-17,7.8-24.9c-1.6,0.7-3.1,1.6-4.6,2.7c-19.6,22.7-51.9,96.4-49.5,98.9
			c2.4,2.5,12.4-2.9,12.4-2.9c2.9-6.3,6.3-12.3,10.2-18c1.3-1.9,2.7-3.8,4-5.6c10.8-15.9,26.4-28.2,42.2-41.1
			c1.9-1.4,3.6-2.7,5.3-3.9c8.5-6.1,14.7-9.9,16.3-10.8c5.1-3.1,17-8.1,19.6-4.8c2,2.5,2.2,3.4,0.4,7.4c-0.6,1.3-1.5,3-2.5,5.2
			c-1.1,1.9-2.2,3.8-3.4,5.7s-2.4,3.7-3.6,5.6c-9,15.8-21.6,31.1-18.7,48.5c1.9,10.9,18.5,13.1,30.9,12.2c2.4-0.3,4.8-0.8,7.2-1.4
			c2.4-0.6,4.9-1.3,7.2-2.1s4.7-1.8,7.1-2.8c2.8-1.2,5.5-2.5,8.2-3.9c11.3-4.8,20-12.1,30.7-17.9c-3.9,10.2,3.9,21.8,16.5,25.5
			c2.1,0.6,4.2,1,6.4,1.3c2.1,0.3,4.3,0.4,6.5,0.4c32.8-0.9,55.8-23.1,80.2-37.4c3.2-1.9,13.5-9.3,13.5-9.3l4.5-16.2L538.1,231.6z
			 M451.7,230.3c12.5-18.7,27-36.2,49.7-49.4c7.1-2.8,9.3,0,9.3,0c1,1.5,1.5,3.2,1.5,5c0,1.6-0.4,3.2-0.9,4.7
			c-5.1,10.9-14.2,20.3-25.4,28.1c-2.2,1.6-4.6,3.1-7,4.5c-7,3.7-13.8,8.1-23,11c-2.7,1-5.4,2-8.1,2.8
			C448.9,234.7,450.2,232.5,451.7,230.3L451.7,230.3z"/>
		<path class="st0" d="M312.6,35.8c-1.2-1.2-2.6-2.1-4.2-2.7c-2-0.7-4.1-1.2-6.1-1.5c-5-12.7-15.5-21.4-27.9-26.4
			c-1.8-0.7-3.6-1.4-5.5-1.9c-8.7-3-18-4-27.1-2.9c-2.3,0.3-4.5,0.7-6.8,1.2c-12.4,2.7-23.4,9.9-30.9,20.1c-1.2,1.6-2.3,3.3-3.3,5
			c-9.6,19-9,40.7-5.7,60.7c0.3,1.7,0.6,3.5,0.9,5.2c0.4,2.2,0.9,4.4,1.3,6.5c0.5,2.2,1,4.3,1.5,6.5c4.7,18.7,11.9,36.3,15.2,55.1
			c0.3,1.6,0.6,3.3,0.8,5c0.2,1.7,0.5,3.4,0.6,5.1c1,8,1,16.3,1,24.6c-0.1,1.5-0.2,2.9-0.4,4.3c-0.1,1.9-0.3,3.8-0.5,5.7
			c-0.2,1.9-0.4,3.8-0.7,5.7c-0.3,1.9-0.6,3.8-1,5.7c-5.3,22.5-19.6,44.2-42.5,54.8c-2,1.1-4,2.1-6,3c-7.7,3.6-15.7,6.5-24,8.5
			c-1.7,0.4-3.3,0.8-5,1.1c-8.8,0.9-17.3,3.2-26.4,3.2c4.6-4.7,11.1-8.8,15.7-13.5l3.9-3.8c6.5-6.4,12.8-12.9,17.8-20
			c1.2-1.5,2.3-3.2,3.4-4.8c12.5-18.5,23.9-45.2,26.9-67.1c0.3-2,0.5-3.9,0.6-5.9c0.1-3.2,0-6.4-0.3-9.6c-0.1-1.6-0.4-3.2-0.6-4.8
			c-0.2-1.7-0.5-3.5-0.9-5.1c-1.8-4.5-3.7-9.2-7.4-13.1c-1.6-1.7-3.4-3.2-5.3-4.6c-17.1-12.1-43-9-58.7,3c-3.8,2.6-7.3,5.5-10.6,8.7
			c-1.6,1.6-3.1,3.3-4.5,5c-5.4,6.6-9.8,13.9-13.1,21.8c-0.8,1.8-1.5,3.6-2.2,5.4c-4,11.5-7.3,23.3-9.6,35.3c-0.4,2-0.8,4-1.2,6
			c-0.4,2-0.7,4-1,6c-0.3,2-0.6,4-0.9,6c-1.6,13.9-3.5,28-5.5,42c-0.3,2-0.6,4-0.9,6c-2.1,14-4.9,28-10.8,41.1
			c-0.5,1.2-0.9,2.3-1.4,3.5C32,353,13.1,377.3-5.1,390.1c1.6,0.3,3.1,0.6,4.7,1c5.6-2.7,13.2-7.7,22.8-16.6
			C35.5,362.2,44.9,346,51,332.6c0.9-1.9,1.7-3.8,2.4-5.6c2.2-5.4,4.3-10.9,6.1-16.4c0.6-1.8,1.2-3.7,1.8-5.5
			c4-12.9,6.6-25.8,9.9-38.9c0.3-1.7,0.7-3.5,0.9-5.2c2-12.2,2.9-24.3,6.1-36.1c0.4-1.6,0.8-3.1,1.2-4.7c1-4.2,2.1-8.3,3.1-12.4
			c0.5-2.1,1.1-4.1,1.7-6.2c5.2-19.2,13-39.1,29.5-53.3c1.3-1.2,2.6-2.2,4-3.2c4.4-3.1,9.4-5.2,14.7-6.1
			c13.1-1.8,26.1,3.5,32.2,13.9c1.6,2.5,2.7,5.2,3.3,8.1c0.4,1.8,0.7,3.7,0.8,5.6c0.2,5.7-0.5,11.4-2.2,16.8c-0.3,1.1-0.6,2.3-1,3.6
			c-2.7,8.7-7.6,19.9-16.5,33.7c-6.3,9.9-13.3,19.4-20.8,28.5c-1.4,1.7-2.8,3.3-4.2,4.9c-1.5,1.7-3,3.5-4.6,5.2s-3.2,3.4-4.8,5.1
			c-11.5,10.7-23.3,21.8-38.3,28.3c17.4,5.8,35.9,7.7,54.1,5.5c2-0.1,3.9-0.2,5.8-0.4c16.3-1.7,32.2-6.5,46.6-14.3
			c1.8-1,3.5-2,5.1-3c21-13,37.3-32.3,42.2-55.5c0.5-2,1-4,1.3-6.1c0.3-1.5,0.5-3,0.8-4.6c0-1.6,0-3.1,0-4.7
			c0.3-15.8-2-31.6-6.7-46.7c-0.5-1.7-1.1-3.4-1.7-5.1c-4.5-17.1-9-34.1-12.1-51.6c-0.3-1.7-0.6-3.5-0.9-5.3
			c-0.8-5.3-1.5-10.5-2.1-15.8c-0.2-2-0.4-4-0.6-6.1c-1.8-14-1.8-28.6,3.8-42.2c0.7-1.8,1.4-3.6,2.3-5.4c5.9-12.2,16-22.2,32-24.1
			c2.2-0.4,4.5-0.6,6.8-0.7c6.7-0.3,13.4,1.1,19.5,3.9c1.8,0.9,3.5,2,5.1,3.2c9.7,7.4,13.6,20.2,9.6,31.7c-0.4,1.5-0.9,3-1.4,4.5
			c-1.1,3-2.6,5.8-4.4,8.4c-1.2,1.8-2.6,3.5-4,5c-3.8,4.6-9,8.1-14,11c-0.9,0.7-1.9,1.4-2.9,2.1c7.9,4.5,18.3,5.1,27.5,2.8
			c1.9-0.5,3.8-1.1,5.6-1.8c7.3-2.7,13.7-7.5,18.4-13.8c1.2-1.7,2.2-3.4,3.1-5.3C318.9,51.2,318.5,41.4,312.6,35.8z"/>
		<path class="st0" d="M266.3,27.8c-1.3-1.3-2.9-2.3-4.7-2.8c-3.7-1.1-8.3,1.8-7.3,5.6c1,2.4,1.5,4.8,4.3,6.5c0.9,0.7,2,1,3.1,0.9
			h0.1c1.8,0.1,3.5-0.7,4.6-2c0.2-0.2,0.4-0.4,0.6-0.6c0.1-0.1,0.1-0.1,0.1-0.2c0.3-0.3,0.5-0.7,0.7-1.1c0.5-1.1,0.6-2.3,0.3-3.4
			C267.8,29.6,267.1,28.6,266.3,27.8z"/>
	</g>
</g>
</svg>
