<?xml version="1.0" encoding="utf-8"?>
<!-- Generator: Adobe Illustrator 21.1.0, SVG Export Plug-In . SVG Version: 6.00 Build 0)  -->
<svg version="1.1" id="Слой_1" xmlns="http://www.w3.org/2000/svg" xmlns:xlink="http://www.w3.org/1999/xlink" x="0px" y="0px"
	 viewBox="0 0 9.6 4.9" style="enable-background:new 0 0 9.6 4.9;" xml:space="preserve">
<path d="M2.4,0c0,0-0.1,0-0.1,0L0,2.4C0,2.4,0,2.5,0,2.6l2.2,2.3c0.1,0.1,0.2,0,0.2,0c0-0.1,0-0.1,0-0.2l0,0L0.4,2.5l2.1-2.2
	C2.5,0.2,2.5,0.1,2.4,0C2.4,0,2.4,0,2.4,0z"/>
<path d="M9.4,2.3H0.2C0.1,2.3,0,2.4,0,2.5c0,0.1,0.1,0.2,0.1,0.2c0,0,0,0,0,0h9.2c0.1,0,0.2-0.1,0.2-0.1C9.6,2.4,9.5,2.3,9.4,2.3
	C9.4,2.3,9.4,2.3,9.4,2.3z"/>
</svg>
