<svg version="1.1" id="Слой_1" xmlns="http://www.w3.org/2000/svg" xmlns:xlink="http://www.w3.org/1999/xlink" x="0px" y="0px"
	 viewBox="0 0 680.6 207.1" style="enable-background:new 0 0 680.6 207.1;" xml:space="preserve">
<style type="text/css">
	.st0{enable-background:new    ;}
	.st1{fill:#383537;}
	.st2{fill:none;stroke:#383537;stroke-width:0.5;stroke-miterlimit:10;}
</style>
<title>main__utp</title>
<g id="Слой_2">
	<g class="st0">
		<path class="st1" d="M159.8,55.5c0,0.3-0.4,0.8-1.2,1.5c-3.6,3.1-7.2,4.6-10.9,4.6c-2.3,0-4.2-0.6-5.9-1.9
			c-3.7,5-7.8,7.5-12.2,7.5c-3.3,0-4.9-2.1-4.9-6.2c0-5.4,2.6-10.8,7.8-16.3c4.4-4.6,7.6-6.9,9.7-6.9c1.3,0,2,0.4,2,1.2
			c0,0.2-0.2,0.6-0.7,1c-2,0.4-4.6,2.5-7.9,6.4c-4.1,4.7-6.1,9.1-6.1,13.5c0,2.8,1,4.2,2.9,4.2c2.9,0,5.7-1.7,8.7-5.1
			c-1.5-1.7-2.3-3.9-2.3-6.5c0-3,0.7-5.6,2.2-7.7c1.3-1.8,2.7-2.7,4.2-2.7s2.3,1,2.6,3.1c0,3.7-1.3,7.6-3.8,11.8
			c1.4,1.6,3.3,2.4,5.6,2.4c3.2,0,6.3-1.3,9.3-4c0.2-0.2,0.5-0.4,0.7-0.4C159.6,55,159.8,55.1,159.8,55.5z M146.3,45.9
			c0-0.8-0.3-1.2-0.9-1.2c-0.7,0-1.5,0.7-2.3,2c-0.8,1.3-1.2,3-1.2,5.1c0,1.7,0.4,3.2,1.1,4.4C145.2,52.6,146.3,49.2,146.3,45.9z"/>
		<path class="st1" d="M195.4,55.5c0,1.2-2.9,3.3-8.8,6.5c-5.9,3.2-13,4.7-21.4,4.7c-4.8,0-7.4-0.5-7.8-1.5c0-0.6,0.4-0.9,1.3-0.9
			c1.2,0.2,2,0.4,2.3,0.4c4.2,0,8.6-2.2,13.3-6.5c4.5-4.1,6.7-7.6,6.7-10.5c0-1.2-0.8-1.9-2.3-1.9c-7.7,0-16,7.4-25.1,22.2
			c-0.7,1.2-5.2,10-13.4,26.5c-8.2,16.5-12.5,25.3-13,26.5c-0.6,1.4-1.3,2.1-2.2,2.1c-0.3,0-0.6,0-0.7-0.1c-0.5-0.2-0.7-0.7-0.7-1.5
			c0-3,18.3-37.9,55-104.7c0.7-1.2,1.3-1.7,1.8-1.7c0.1,0,0.2,0.1,0.5,0.2c0.2,0.2,0.4,0.5,0.4,1c0,0.9-0.2,1.6-0.7,2.1
			c-0.1,0.2-3.4,6.4-10,18.5c-6.3,11.6-9.4,17.8-9.4,18.6c0,0.1,0,0.2,0.1,0.2c0.1-0.2,0.4-0.5,0.9-1c2-2.4,4.6-4.9,8.1-7.4
			c4.6-3.2,8.6-4.7,12-4.7c2.5,0,3.8,1,3.8,3c0,6.1-4.8,12-14.3,17.8c7.3,0,14.8-2.7,22.6-8.1c0.2-0.2,0.5-0.4,0.7-0.4
			C195.3,55,195.4,55.1,195.4,55.5z"/>
		<path class="st1" d="M224.4,55.5c0,0.6-1.7,2-5,4.1c-8.2,5.3-14.1,8-17.7,8c-5.3,0-7.9-3.2-7.9-9.5c0-4.7,2.2-9.3,6.7-14
			c4.4-4.7,8.7-7,12.6-7c1.2,0,1.8,0.6,1.8,1.7c0,2.8-2.4,6.8-7.2,12c-3.8,4.1-7,6.9-9.4,8.4c0.2,3.7,2,5.5,5.1,5.5
			c3,0,8.1-2.1,15.2-6.2c0.6-0.3,2.2-1.3,4.8-3c0.2-0.2,0.5-0.4,0.7-0.4C224.3,55,224.4,55.1,224.4,55.5z M211.1,41.1
			c0-1-0.3-1.5-0.9-1.5c-2,0-4.5,2.1-7.5,6.2c-2.9,4.2-4.4,7.9-4.5,11.2c1.5-0.5,4-2.7,7.3-6.5C209.2,46.4,211.1,43.3,211.1,41.1z"
			/>
		<path class="st1" d="M282.2,55.5c-0.3,1.1-3.1,3.2-8.4,6.4c-5.3,3.2-9.8,6-13.6,8.5c-11.7,23.3-18.9,37.3-21.8,42.1
			c-8.1,13.6-14.8,20.5-20.2,20.5c-2.4,0-3.7-1.6-3.7-4.9c0-19.1,14.1-38.4,42.4-57.9c1.9-3.7,5.3-10.8,10.3-21.3
			c0-0.1-0.1-0.1-0.2-0.1c-0.2,0-0.4,0.2-0.9,0.6c-1.6,1.6-3.8,3.6-6.5,6.1c-5.8,5.5-10.5,8.2-14.2,8.2c-1.7,0-2.6-1-2.6-3.1
			c0-3.7,2.6-8.1,7.9-13c5.7-5.3,11.3-8,16.7-8c1.5,0,2.9,0.3,3.9,1l2.6-3.6c0.6-0.7,1.1-1.1,1.7-1.1c1.1,0,1.6,0.6,1.6,1.7
			c0,0.6-0.2,1.2-0.6,1.7c-3.8,5.8-8.8,15-15,27.7c4.2-2.7,7.9-4.9,11.4-6.7c4.1-2.4,6.7-4.1,7.9-5.1c0.2-0.2,0.5-0.4,0.7-0.4
			C282.1,55,282.2,55.1,282.2,55.5z M255.3,73.9c-24.8,18-37.3,35.7-37.3,53.2c0,2.2,0.7,3.2,2.1,3.2
			C225.3,130.4,237.1,111.6,255.3,73.9z M270.7,42.2c0-0.3-0.4-0.5-1.1-0.5c-4.4,0-9.2,2.1-14.4,6.4c-5.2,4.3-7.8,8.1-7.8,11.4
			c0,1,0.4,1.5,1.3,1.5c3.3,0,10.5-5.9,21.4-17.8C270.5,42.7,270.7,42.3,270.7,42.2z"/>
		<path class="st1" d="M321.9,55.5c0,0.5-0.6,1.2-1.8,2c-10,6.9-16.8,10.4-20.3,10.4c-2.3,0-3.4-1.3-3.4-4c0-1.5,0.3-3,0.9-4.5
			c0.8-2.1,1.2-3.2,1.2-3.2c0-0.3-0.1-0.5-0.4-0.5c-0.1,0-0.3,0.1-0.6,0.2c-1.8,1.8-4.4,4-7.8,6.6c-4.4,3.3-7.5,5-9.2,5
			c-2,0-2.9-1-2.9-3c0-1.2,1.4-4.4,4.3-9.7c2.9-5.3,4.3-8.3,4.3-9.2c0-0.9-0.7-1.4-2.2-1.4c-0.3,0-0.5-0.5-0.5-1.5
			c0.7-0.2,1.5-0.4,2.3-0.4c2.9,0,4.3,0.8,4.3,2.5c0,1.8-1.3,4.9-3.8,9.2c-2.5,4.3-3.8,7-3.8,8.1c0,0.7,0.3,1,0.9,1
			c1.3,0,4.5-2.2,9.6-6.6c5.1-4.4,9-8.4,11.8-12c1.2-1.2,2.1-1.9,2.7-1.9c1.1,0,1.6,0.5,1.6,1.6c0,0.6-0.3,1.3-0.9,2.2
			c-4.9,7.5-7.3,12.3-7.3,14.6c0,2.1,0.9,3.1,2.8,3.1c2.9,0,8-2.6,15.5-7.9c0.4-0.3,1-0.7,1.7-1.1c0.2-0.2,0.5-0.4,0.7-0.4
			C321.8,55,321.9,55.1,321.9,55.5z"/>
		<path class="st1" d="M355.3,55.5c0,0.4-0.6,1.1-1.8,2l-16.9,12.7c-0.2,6.4-3.1,14.9-8.8,25.6c-5.3,10-11.4,18.8-18.2,26.4
			c-7.3,8.1-13,12.1-17.1,12c-1.4,0-2.6-0.5-3.5-1.5c-1-1-1.5-2.2-1.5-3.7c0-6.2,3.7-14.3,11-24.3c5.6-7.5,12.6-15.3,20.9-23.3
			c7.3-7,11.5-10.5,12.5-10.5c0-0.5-0.1-1-0.4-1.4c-1.1-2.1-2.7-3.1-4.8-3.1c-0.8,0-1.7,0.2-2.7,0.5c-2,0.7-3.1,1-3.5,1
			c-0.2,0-0.4-0.2-0.5-0.5c0-0.8,0.8-1.6,2.4-2.2c2.6-1.2,5.7-3.4,9.4-6.6c4.3-3.9,6.5-7.1,6.5-9.5c0-1.4-0.7-2.1-2-2.1
			c-1.1,0-3.6,1.3-7.5,4c-3,2.2-6,4.5-9,6.7c-0.2,0.2-0.5,0.4-0.7,0.4c-0.2,0-0.2-0.5-0.2-1.4c0.2-0.2,1.7-1.3,4.4-3.4
			c2.7-2.1,5.4-4.3,8.2-6.6c2.8-2.3,5.4-3.4,7.6-3.4c2.9,0,4.4,1.6,4.4,4.7c0,3.8-4.8,8.9-14.4,15.3c-0.6,0.6-0.9,1-0.9,1.2
			c0,0.3,0.3,0.5,0.9,0.5c3.6,0,5.9,1.1,7.1,3.2c1.9-1.1,4.8-3.3,8.9-6.6c3.7-3,6.8-5.1,9-6.2c0.2-0.2,0.5-0.4,0.7-0.4
			C355.2,55,355.3,55.1,355.3,55.5z M332.4,73.4c0-0.3,0-0.5-0.1-0.5c-1.8,0-6.1,3.5-12.8,10.5c-7.2,7.3-13.4,14.8-18.6,22.6
			c-6.3,9.4-9.4,16.7-9.4,21.9c0,1.9,0.6,2.9,1.8,2.9c2.4,0,6.9-3.6,13.4-10.8c6.5-7.2,12.2-14.9,17.1-23.3
			C329.6,87.1,332.4,79.3,332.4,73.4z"/>
		<path class="st1" d="M393.2,55.5c0,1-2.5,2.9-7.6,5.7c-5.3,3-9.1,4.5-11.4,4.5c-4.2,0-6.4-2.3-6.4-6.9c0-1.2,0.7-2.7,2-4.2
			c0-0.1,0-0.1-0.1-0.1c0.1,0-2.1,1.7-6.6,5.2c-4.5,3.5-7.7,5.2-9.7,5.2c-1.9,0-2.8-0.8-2.8-2.4c0-3.8,3.1-8.3,9.4-13.3
			c5.9-4.9,10.6-7.4,13.9-7.4c0.5,0.1,1,0.4,1.6,0.8c0.6,0.5,0.9,0.8,0.9,1.1c0,0.1,0,0.2-0.1,0.2c-4.6,0-10.4,3.6-17.5,10.8
			c-2.3,2.3-3.4,4.3-3.4,5.9c0,0.6,0.3,0.9,0.9,0.9c1.8,0,5.2-2.1,10.3-6.4c4.1-3.5,7-6.3,8.7-8.4c0.8-1,1.4-1.5,1.7-1.5
			c0.8,0,1.2,0.6,1.2,1.7c0,0.4-0.5,1.4-1.6,2.9c-3.5,4.9-5.3,8-5.3,9.4c0,2.3,1.3,3.5,3.8,3.5c4.2,0,9.8-2.5,16.9-7.4
			c0.2-0.2,0.5-0.4,0.7-0.4S393.2,55.1,393.2,55.5z"/>
		<path class="st1" d="M432.8,55.5c0,0.5-0.6,1.2-1.8,2c-10,6.9-16.8,10.4-20.3,10.4c-2.3,0-3.4-1.3-3.4-4c0-1.5,0.3-3,0.9-4.5
			c0.8-2.1,1.2-3.2,1.2-3.2c0-0.3-0.1-0.5-0.4-0.5c-0.1,0-0.3,0.1-0.6,0.2c-1.8,1.8-4.4,4-7.8,6.6c-4.4,3.3-7.5,5-9.2,5
			c-2,0-2.9-1-2.9-3c0-1.2,1.4-4.4,4.3-9.7c2.9-5.3,4.3-8.3,4.3-9.2c0-0.9-0.7-1.4-2.2-1.4c-0.3,0-0.5-0.5-0.5-1.5
			c0.7-0.2,1.5-0.4,2.3-0.4c2.8,0,4.3,0.8,4.3,2.5c0,1.8-1.3,4.9-3.8,9.2c-2.5,4.3-3.8,7-3.8,8.1c0,0.7,0.3,1,0.9,1
			c1.3,0,4.5-2.2,9.6-6.6c5.1-4.4,9-8.4,11.8-12c1.2-1.2,2.1-1.9,2.7-1.9c1.1,0,1.6,0.5,1.6,1.6c0,0.6-0.3,1.3-0.9,2.2
			c-4.9,7.5-7.3,12.3-7.3,14.6c0,2.1,0.9,3.1,2.8,3.1c2.9,0,8-2.6,15.5-7.9c0.4-0.3,1-0.7,1.7-1.1c0.2-0.2,0.5-0.4,0.7-0.4
			C432.6,55,432.8,55.1,432.8,55.5z M427.3,23.2c0,0.7-1.5,1.9-4.5,3.5c-4.6,2.4-8.6,5.3-12.1,8.6c-0.2,0-0.2-0.2-0.2-0.6
			c0-0.5,0.1-0.8,0.2-1c1.1-1.4,2.3-2.8,3.5-4.2c1.2-1.4,2.4-2.8,3.5-4.2c3.3-3.6,5.7-5.4,7.5-5.4h0.2c1.2,0.4,1.8,1.3,1.8,2.6V23.2
			z"/>
		<path class="st1" d="M443.6,62.3c-0.2,0.3-0.6,0.8-1,1.3c-0.4,0.5-0.8,1.1-1.2,1.6c-0.4,0.5-0.7,1-1,1.4c-0.3,0.4-0.6,0.6-0.7,0.6
			c-1.1,0-1.6-0.6-1.6-1.7c0-0.4,0.3-1.2,0.9-2.5c1-1.4,2-2.8,2.9-4.1c1-1.3,1.9-2.7,2.8-4.1c2.9-4.2,4.3-7.1,4.3-8.9
			c0-0.7-0.2-1.1-0.7-1.1c-0.3,0-0.8,0.2-1.5,0.5c-2.1,1.6-4.6,3.5-7.5,5.7c-2.9,2.2-6.3,4.8-10.2,7.7h-0.9c-0.6,0-0.9-0.1-0.9-0.2
			c0-0.2,0.4-0.6,1.3-1.2c2.9-2.3,5.8-4.7,9-7.2c3.1-2.5,6.5-5,10-7.7c0.9-0.8,2.2-1.2,3.8-1.2c1.6,0,2.4,0.7,2.4,2.2
			c0,1.7-1.2,4.3-3.5,8c-0.2,0.3-0.4,0.6-0.6,0.9c-0.2,0.3-0.4,0.6-0.6,0.9c0.7,0,1.4,0,2.3,0s1.9,0,3.1-0.1c2-0.2,3.6-0.2,5,0
			c0.3-0.6,0.7-1.2,1-1.7c0.3-0.6,0.7-1.2,1.1-1.9c0.9-1.4,1.8-2.7,2.6-3.9c0.9-1.2,1.7-2.2,2.6-3.1c0.6-0.7,1.5-1.1,2.7-1.1
			c0.7,0.2,1,0.4,1,0.6l-4.3,7.2c-2.9,4.8-4.3,8.3-4.3,10.5c0,2.6,1.1,3.9,3.3,3.9c2.8,0,6.8-2.5,12.1-7.4c0.2-0.2,0.5-0.4,0.7-0.4
			c0.2,0,0.4,0.2,0.4,0.5c0,0.5-0.8,1.3-2.4,2.5c-2.6,2.3-5,4.1-7.1,5.3c-2.1,1.2-4.1,1.8-6,1.8c-3.7,0-5.5-1.6-5.5-4.7
			c0-2.1,0.4-4.2,1.3-6.4c-1-0.1-2.1-0.1-3.5-0.1c-1.3,0-2.8,0.1-4.5,0.2c-1.1,0.1-1.9,0.1-2.2,0.1c-0.3,0-0.6,0-0.7,0
			c-1.1,1.7-2.1,3.2-3,4.7C444.1,61.3,443.6,62.1,443.6,62.3z"/>
		<path class="st1" d="M517.4,55.5c0,1-2.5,2.9-7.6,5.7c-5.3,3-9.1,4.5-11.4,4.5c-4.2,0-6.4-2.3-6.4-6.9c0-1.2,0.7-2.7,2-4.2
			c0-0.1,0-0.1-0.1-0.1c0.1,0-2.1,1.7-6.6,5.2c-4.5,3.5-7.7,5.2-9.7,5.2c-1.9,0-2.8-0.8-2.8-2.4c0-3.8,3.1-8.3,9.4-13.3
			c5.9-4.9,10.6-7.4,13.9-7.4c0.5,0.1,1,0.4,1.6,0.8c0.6,0.5,0.9,0.8,0.9,1.1c0,0.1,0,0.2-0.1,0.2c-4.6,0-10.4,3.6-17.5,10.8
			c-2.3,2.3-3.4,4.3-3.4,5.9c0,0.6,0.3,0.9,0.9,0.9c1.8,0,5.2-2.1,10.3-6.4c4.1-3.5,7-6.3,8.7-8.4c0.8-1,1.4-1.5,1.7-1.5
			c0.8,0,1.2,0.6,1.2,1.7c0,0.4-0.5,1.4-1.6,2.9c-3.5,4.9-5.3,8-5.3,9.4c0,2.3,1.3,3.5,3.8,3.5c4.2,0,9.8-2.5,16.9-7.4
			c0.2-0.2,0.5-0.4,0.7-0.4S517.4,55.1,517.4,55.5z"/>
	</g>
	<g class="st0">
		<path class="st2" d="M159.8,55.5c0,0.3-0.4,0.8-1.2,1.5c-3.6,3.1-7.2,4.6-10.9,4.6c-2.3,0-4.2-0.6-5.9-1.9
			c-3.7,5-7.8,7.5-12.2,7.5c-3.3,0-4.9-2.1-4.9-6.2c0-5.4,2.6-10.8,7.8-16.3c4.4-4.6,7.6-6.9,9.7-6.9c1.3,0,2,0.4,2,1.2
			c0,0.2-0.2,0.6-0.7,1c-2,0.4-4.6,2.5-7.9,6.4c-4.1,4.7-6.1,9.1-6.1,13.5c0,2.8,1,4.2,2.9,4.2c2.9,0,5.7-1.7,8.7-5.1
			c-1.5-1.7-2.3-3.9-2.3-6.5c0-3,0.7-5.6,2.2-7.7c1.3-1.8,2.7-2.7,4.2-2.7s2.3,1,2.6,3.1c0,3.7-1.3,7.6-3.8,11.8
			c1.4,1.6,3.3,2.4,5.6,2.4c3.2,0,6.3-1.3,9.3-4c0.2-0.2,0.5-0.4,0.7-0.4C159.6,55,159.8,55.1,159.8,55.5z M146.3,45.9
			c0-0.8-0.3-1.2-0.9-1.2c-0.7,0-1.5,0.7-2.3,2c-0.8,1.3-1.2,3-1.2,5.1c0,1.7,0.4,3.2,1.1,4.4C145.2,52.6,146.3,49.2,146.3,45.9z"/>
		<path class="st2" d="M195.4,55.5c0,1.2-2.9,3.3-8.8,6.5c-5.9,3.2-13,4.7-21.4,4.7c-4.8,0-7.4-0.5-7.8-1.5c0-0.6,0.4-0.9,1.3-0.9
			c1.2,0.2,2,0.4,2.3,0.4c4.2,0,8.6-2.2,13.3-6.5c4.5-4.1,6.7-7.6,6.7-10.5c0-1.2-0.8-1.9-2.3-1.9c-7.7,0-16,7.4-25.1,22.2
			c-0.7,1.2-5.2,10-13.4,26.5c-8.2,16.5-12.5,25.3-13,26.5c-0.6,1.4-1.3,2.1-2.2,2.1c-0.3,0-0.6,0-0.7-0.1c-0.5-0.2-0.7-0.7-0.7-1.5
			c0-3,18.3-37.9,55-104.7c0.7-1.2,1.3-1.7,1.8-1.7c0.1,0,0.2,0.1,0.5,0.2c0.2,0.2,0.4,0.5,0.4,1c0,0.9-0.2,1.6-0.7,2.1
			c-0.1,0.2-3.4,6.4-10,18.5c-6.3,11.6-9.4,17.8-9.4,18.6c0,0.1,0,0.2,0.1,0.2c0.1-0.2,0.4-0.5,0.9-1c2-2.4,4.6-4.9,8.1-7.4
			c4.6-3.2,8.6-4.7,12-4.7c2.5,0,3.8,1,3.8,3c0,6.1-4.8,12-14.3,17.8c7.3,0,14.8-2.7,22.6-8.1c0.2-0.2,0.5-0.4,0.7-0.4
			C195.3,55,195.4,55.1,195.4,55.5z"/>
		<path class="st2" d="M224.4,55.5c0,0.6-1.7,2-5,4.1c-8.2,5.3-14.1,8-17.7,8c-5.3,0-7.9-3.2-7.9-9.5c0-4.7,2.2-9.3,6.7-14
			c4.4-4.7,8.7-7,12.6-7c1.2,0,1.8,0.6,1.8,1.7c0,2.8-2.4,6.8-7.2,12c-3.8,4.1-7,6.9-9.4,8.4c0.2,3.7,2,5.5,5.1,5.5
			c3,0,8.1-2.1,15.2-6.2c0.6-0.3,2.2-1.3,4.8-3c0.2-0.2,0.5-0.4,0.7-0.4C224.3,55,224.4,55.1,224.4,55.5z M211.1,41.1
			c0-1-0.3-1.5-0.9-1.5c-2,0-4.5,2.1-7.5,6.2c-2.9,4.2-4.4,7.9-4.5,11.2c1.5-0.5,4-2.7,7.3-6.5C209.2,46.4,211.1,43.3,211.1,41.1z"
			/>
		<path class="st2" d="M282.2,55.5c-0.3,1.1-3.1,3.2-8.4,6.4c-5.3,3.2-9.8,6-13.6,8.5c-11.7,23.3-18.9,37.3-21.8,42.1
			c-8.1,13.6-14.8,20.5-20.2,20.5c-2.4,0-3.7-1.6-3.7-4.9c0-19.1,14.1-38.4,42.4-57.9c1.9-3.7,5.3-10.8,10.3-21.3
			c0-0.1-0.1-0.1-0.2-0.1c-0.2,0-0.4,0.2-0.9,0.6c-1.6,1.6-3.8,3.6-6.5,6.1c-5.8,5.5-10.5,8.2-14.2,8.2c-1.7,0-2.6-1-2.6-3.1
			c0-3.7,2.6-8.1,7.9-13c5.7-5.3,11.3-8,16.7-8c1.5,0,2.9,0.3,3.9,1l2.6-3.6c0.6-0.7,1.1-1.1,1.7-1.1c1.1,0,1.6,0.6,1.6,1.7
			c0,0.6-0.2,1.2-0.6,1.7c-3.8,5.8-8.8,15-15,27.7c4.2-2.7,7.9-4.9,11.4-6.7c4.1-2.4,6.7-4.1,7.9-5.1c0.2-0.2,0.5-0.4,0.7-0.4
			C282.1,55,282.2,55.1,282.2,55.5z M255.3,73.9c-24.8,18-37.3,35.7-37.3,53.2c0,2.2,0.7,3.2,2.1,3.2
			C225.3,130.4,237.1,111.6,255.3,73.9z M270.7,42.2c0-0.3-0.4-0.5-1.1-0.5c-4.4,0-9.2,2.1-14.4,6.4c-5.2,4.3-7.8,8.1-7.8,11.4
			c0,1,0.4,1.5,1.3,1.5c3.3,0,10.5-5.9,21.4-17.8C270.5,42.7,270.7,42.3,270.7,42.2z"/>
		<path class="st2" d="M321.9,55.5c0,0.5-0.6,1.2-1.8,2c-10,6.9-16.8,10.4-20.3,10.4c-2.3,0-3.4-1.3-3.4-4c0-1.5,0.3-3,0.9-4.5
			c0.8-2.1,1.2-3.2,1.2-3.2c0-0.3-0.1-0.5-0.4-0.5c-0.1,0-0.3,0.1-0.6,0.2c-1.8,1.8-4.4,4-7.8,6.6c-4.4,3.3-7.5,5-9.2,5
			c-2,0-2.9-1-2.9-3c0-1.2,1.4-4.4,4.3-9.7c2.9-5.3,4.3-8.3,4.3-9.2c0-0.9-0.7-1.4-2.2-1.4c-0.3,0-0.5-0.5-0.5-1.5
			c0.7-0.2,1.5-0.4,2.3-0.4c2.9,0,4.3,0.8,4.3,2.5c0,1.8-1.3,4.9-3.8,9.2c-2.5,4.3-3.8,7-3.8,8.1c0,0.7,0.3,1,0.9,1
			c1.3,0,4.5-2.2,9.6-6.6c5.1-4.4,9-8.4,11.8-12c1.2-1.2,2.1-1.9,2.7-1.9c1.1,0,1.6,0.5,1.6,1.6c0,0.6-0.3,1.3-0.9,2.2
			c-4.9,7.5-7.3,12.3-7.3,14.6c0,2.1,0.9,3.1,2.8,3.1c2.9,0,8-2.6,15.5-7.9c0.4-0.3,1-0.7,1.7-1.1c0.2-0.2,0.5-0.4,0.7-0.4
			C321.8,55,321.9,55.1,321.9,55.5z"/>
		<path class="st2" d="M355.3,55.5c0,0.4-0.6,1.1-1.8,2l-16.9,12.7c-0.2,6.4-3.1,14.9-8.8,25.6c-5.3,10-11.4,18.8-18.2,26.4
			c-7.3,8.1-13,12.1-17.1,12c-1.4,0-2.6-0.5-3.5-1.5c-1-1-1.5-2.2-1.5-3.7c0-6.2,3.7-14.3,11-24.3c5.6-7.5,12.6-15.3,20.9-23.3
			c7.3-7,11.5-10.5,12.5-10.5c0-0.5-0.1-1-0.4-1.4c-1.1-2.1-2.7-3.1-4.8-3.1c-0.8,0-1.7,0.2-2.7,0.5c-2,0.7-3.1,1-3.5,1
			c-0.2,0-0.4-0.2-0.5-0.5c0-0.8,0.8-1.6,2.4-2.2c2.6-1.2,5.7-3.4,9.4-6.6c4.3-3.9,6.5-7.1,6.5-9.5c0-1.4-0.7-2.1-2-2.1
			c-1.1,0-3.6,1.3-7.5,4c-3,2.2-6,4.5-9,6.7c-0.2,0.2-0.5,0.4-0.7,0.4c-0.2,0-0.2-0.5-0.2-1.4c0.2-0.2,1.7-1.3,4.4-3.4
			c2.7-2.1,5.4-4.3,8.2-6.6c2.8-2.3,5.4-3.4,7.6-3.4c2.9,0,4.4,1.6,4.4,4.7c0,3.8-4.8,8.9-14.4,15.3c-0.6,0.6-0.9,1-0.9,1.2
			c0,0.3,0.3,0.5,0.9,0.5c3.6,0,5.9,1.1,7.1,3.2c1.9-1.1,4.8-3.3,8.9-6.6c3.7-3,6.8-5.1,9-6.2c0.2-0.2,0.5-0.4,0.7-0.4
			C355.2,55,355.3,55.1,355.3,55.5z M332.4,73.4c0-0.3,0-0.5-0.1-0.5c-1.8,0-6.1,3.5-12.8,10.5c-7.2,7.3-13.4,14.8-18.6,22.6
			c-6.3,9.4-9.4,16.7-9.4,21.9c0,1.9,0.6,2.9,1.8,2.9c2.4,0,6.9-3.6,13.4-10.8c6.5-7.2,12.2-14.9,17.1-23.3
			C329.6,87.1,332.4,79.3,332.4,73.4z"/>
		<path class="st2" d="M393.2,55.5c0,1-2.5,2.9-7.6,5.7c-5.3,3-9.1,4.5-11.4,4.5c-4.2,0-6.4-2.3-6.4-6.9c0-1.2,0.7-2.7,2-4.2
			c0-0.1,0-0.1-0.1-0.1c0.1,0-2.1,1.7-6.6,5.2c-4.5,3.5-7.7,5.2-9.7,5.2c-1.9,0-2.8-0.8-2.8-2.4c0-3.8,3.1-8.3,9.4-13.3
			c5.9-4.9,10.6-7.4,13.9-7.4c0.5,0.1,1,0.4,1.6,0.8c0.6,0.5,0.9,0.8,0.9,1.1c0,0.1,0,0.2-0.1,0.2c-4.6,0-10.4,3.6-17.5,10.8
			c-2.3,2.3-3.4,4.3-3.4,5.9c0,0.6,0.3,0.9,0.9,0.9c1.8,0,5.2-2.1,10.3-6.4c4.1-3.5,7-6.3,8.7-8.4c0.8-1,1.4-1.5,1.7-1.5
			c0.8,0,1.2,0.6,1.2,1.7c0,0.4-0.5,1.4-1.6,2.9c-3.5,4.9-5.3,8-5.3,9.4c0,2.3,1.3,3.5,3.8,3.5c4.2,0,9.8-2.5,16.9-7.4
			c0.2-0.2,0.5-0.4,0.7-0.4S393.2,55.1,393.2,55.5z"/>
		<path class="st2" d="M432.8,55.5c0,0.5-0.6,1.2-1.8,2c-10,6.9-16.8,10.4-20.3,10.4c-2.3,0-3.4-1.3-3.4-4c0-1.5,0.3-3,0.9-4.5
			c0.8-2.1,1.2-3.2,1.2-3.2c0-0.3-0.1-0.5-0.4-0.5c-0.1,0-0.3,0.1-0.6,0.2c-1.8,1.8-4.4,4-7.8,6.6c-4.4,3.3-7.5,5-9.2,5
			c-2,0-2.9-1-2.9-3c0-1.2,1.4-4.4,4.3-9.7c2.9-5.3,4.3-8.3,4.3-9.2c0-0.9-0.7-1.4-2.2-1.4c-0.3,0-0.5-0.5-0.5-1.5
			c0.7-0.2,1.5-0.4,2.3-0.4c2.8,0,4.3,0.8,4.3,2.5c0,1.8-1.3,4.9-3.8,9.2c-2.5,4.3-3.8,7-3.8,8.1c0,0.7,0.3,1,0.9,1
			c1.3,0,4.5-2.2,9.6-6.6c5.1-4.4,9-8.4,11.8-12c1.2-1.2,2.1-1.9,2.7-1.9c1.1,0,1.6,0.5,1.6,1.6c0,0.6-0.3,1.3-0.9,2.2
			c-4.9,7.5-7.3,12.3-7.3,14.6c0,2.1,0.9,3.1,2.8,3.1c2.9,0,8-2.6,15.5-7.9c0.4-0.3,1-0.7,1.7-1.1c0.2-0.2,0.5-0.4,0.7-0.4
			C432.6,55,432.8,55.1,432.8,55.5z M427.3,23.2c0,0.7-1.5,1.9-4.5,3.5c-4.6,2.4-8.6,5.3-12.1,8.6c-0.2,0-0.2-0.2-0.2-0.6
			c0-0.5,0.1-0.8,0.2-1c1.1-1.4,2.3-2.8,3.5-4.2c1.2-1.4,2.4-2.8,3.5-4.2c3.3-3.6,5.7-5.4,7.5-5.4h0.2c1.2,0.4,1.8,1.3,1.8,2.6V23.2
			z"/>
		<path class="st2" d="M443.6,62.3c-0.2,0.3-0.6,0.8-1,1.3c-0.4,0.5-0.8,1.1-1.2,1.6c-0.4,0.5-0.7,1-1,1.4c-0.3,0.4-0.6,0.6-0.7,0.6
			c-1.1,0-1.6-0.6-1.6-1.7c0-0.4,0.3-1.2,0.9-2.5c1-1.4,2-2.8,2.9-4.1c1-1.3,1.9-2.7,2.8-4.1c2.9-4.2,4.3-7.1,4.3-8.9
			c0-0.7-0.2-1.1-0.7-1.1c-0.3,0-0.8,0.2-1.5,0.5c-2.1,1.6-4.6,3.5-7.5,5.7c-2.9,2.2-6.3,4.8-10.2,7.7h-0.9c-0.6,0-0.9-0.1-0.9-0.2
			c0-0.2,0.4-0.6,1.3-1.2c2.9-2.3,5.8-4.7,9-7.2c3.1-2.5,6.5-5,10-7.7c0.9-0.8,2.2-1.2,3.8-1.2c1.6,0,2.4,0.7,2.4,2.2
			c0,1.7-1.2,4.3-3.5,8c-0.2,0.3-0.4,0.6-0.6,0.9c-0.2,0.3-0.4,0.6-0.6,0.9c0.7,0,1.4,0,2.3,0s1.9,0,3.1-0.1c2-0.2,3.6-0.2,5,0
			c0.3-0.6,0.7-1.2,1-1.7c0.3-0.6,0.7-1.2,1.1-1.9c0.9-1.4,1.8-2.7,2.6-3.9c0.9-1.2,1.7-2.2,2.6-3.1c0.6-0.7,1.5-1.1,2.7-1.1
			c0.7,0.2,1,0.4,1,0.6l-4.3,7.2c-2.9,4.8-4.3,8.3-4.3,10.5c0,2.6,1.1,3.9,3.3,3.9c2.8,0,6.8-2.5,12.1-7.4c0.2-0.2,0.5-0.4,0.7-0.4
			c0.2,0,0.4,0.2,0.4,0.5c0,0.5-0.8,1.3-2.4,2.5c-2.6,2.3-5,4.1-7.1,5.3c-2.1,1.2-4.1,1.8-6,1.8c-3.7,0-5.5-1.6-5.5-4.7
			c0-2.1,0.4-4.2,1.3-6.4c-1-0.1-2.1-0.1-3.5-0.1c-1.3,0-2.8,0.1-4.5,0.2c-1.1,0.1-1.9,0.1-2.2,0.1c-0.3,0-0.6,0-0.7,0
			c-1.1,1.7-2.1,3.2-3,4.7C444.1,61.3,443.6,62.1,443.6,62.3z"/>
		<path class="st2" d="M517.4,55.5c0,1-2.5,2.9-7.6,5.7c-5.3,3-9.1,4.5-11.4,4.5c-4.2,0-6.4-2.3-6.4-6.9c0-1.2,0.7-2.7,2-4.2
			c0-0.1,0-0.1-0.1-0.1c0.1,0-2.1,1.7-6.6,5.2c-4.5,3.5-7.7,5.2-9.7,5.2c-1.9,0-2.8-0.8-2.8-2.4c0-3.8,3.1-8.3,9.4-13.3
			c5.9-4.9,10.6-7.4,13.9-7.4c0.5,0.1,1,0.4,1.6,0.8c0.6,0.5,0.9,0.8,0.9,1.1c0,0.1,0,0.2-0.1,0.2c-4.6,0-10.4,3.6-17.5,10.8
			c-2.3,2.3-3.4,4.3-3.4,5.9c0,0.6,0.3,0.9,0.9,0.9c1.8,0,5.2-2.1,10.3-6.4c4.1-3.5,7-6.3,8.7-8.4c0.8-1,1.4-1.5,1.7-1.5
			c0.8,0,1.2,0.6,1.2,1.7c0,0.4-0.5,1.4-1.6,2.9c-3.5,4.9-5.3,8-5.3,9.4c0,2.3,1.3,3.5,3.8,3.5c4.2,0,9.8-2.5,16.9-7.4
			c0.2-0.2,0.5-0.4,0.7-0.4S517.4,55.1,517.4,55.5z"/>
	</g>
	<g class="st0">
		<path class="st1" d="M117,15.7c-3.4,2.9-7.8,7.5-12.9,13.9c-3.4,4.3-6.6,8.5-9.5,12.5c-2.9,4-5.5,7.9-7.8,11.7
			c-0.7,1.2-1.3,2.4-1.9,3.4c-0.6,1-1.2,2-1.7,2.9c-0.2,0.4-0.4,0.9-0.7,1.4c-0.3,0.5-0.6,1-1,1.6c-0.2,0.1-0.6,0.1-1,0.1
			c-2.3,0-3.5-1-3.6-3c0-0.4,0.1-0.8,0.4-1.2c0.1-0.1,0.4-0.8,1-2.1c0.6-1.3,1.3-2.9,2.1-4.7c0.8-1.8,1.6-3.8,2.5-5.7
			c0.9-2,1.6-3.7,2.3-5.2c0.7-3.2,1.6-6.3,2.5-9.3c0.9-3,1.9-5.9,2.8-8.5c0.9-2.6,1.7-5,2.5-7.2c0.7-2.2,1.3-4,1.7-5.4
			c0.5-1.8,0.6-2.9,0.4-3.3c-0.2-0.4-1.1,0.1-2.6,1.5c-0.3,0.6-2.9,4-7.6,10.2c-1.3,1.8-2.6,3.5-3.8,5.2c-1.2,1.6-2.4,3.2-3.5,4.6
			c-1.1,1.4-3,3.7-5.5,6.9c-2.5,3.2-5.7,7.3-9.7,12.2c-6.6,7.2-13.8,13-21.7,17.5c-9.7,5.2-18.5,7-26.6,5.3
			c-3.7-0.8-6.6-2.3-8.7-4.4c-2.5-2.5-3.4-5.6-2.6-9.1C3.9,51.7,9,46.2,18.2,41.1c8.7-5,15.8-7,21.4-5.9c0.7,0.2,0.9,0.5,0.9,1.1
			c-0.2,0.6-0.8,0.9-2,1c-9.8,1.5-18,5-24.9,10.6C9.5,51.3,7.1,55,6.2,58.9c-1.1,5.1,1.2,8.2,7.1,9.5c8,1.6,16.7-0.5,26.1-6.5
			c7.1-4.5,14.1-10.7,21-18.5c6.9-7.7,11.7-13.2,14.4-16.6c1.4-1.6,2.7-3.3,4.1-5c1.3-1.7,2.7-3.4,4.1-5.2c0.7-1.1,1.7-2.4,2.8-3.9
			c1.1-1.5,2.5-3.3,4.1-5.4c0.8-1.7,2-2.9,3.7-3.6c1.6-0.7,3.2-1.1,4.7-1.2c1.5-0.1,2.7,0,3.6,0.2c0.9,0.2,1,0.3,0.4,0.3
			c0.7,0,1.1,0.4,1.1,1.1c0,0.2-0.2,0.7-0.6,1.4c-0.5,0.8-1,1.6-1.4,2.4c-0.5,0.8-0.9,1.6-1.3,2.4c-1.2,2.4-2.3,4.7-3.2,7
			c-0.9,2.3-1.7,4.7-2.5,7.2c-0.8,2.5-1.6,5.2-2.3,8.1c-0.8,2.9-1.7,6.2-2.6,9.9c4.9-6.2,10.3-12.5,16.1-18.7c1.8-2,3.7-3.8,5.7-5.6
			c2-1.8,3.9-3.3,5.9-4.7c2-1.4,3.9-2.4,5.7-3.2c1.8-0.8,3.5-1.2,5-1.2c0.7,0,1.1,0.4,1.1,1.1c0,0.8-0.2,1.8-0.7,2.9
			c-0.5,1.1-1,2.3-1.5,3.5c-0.6,1.2-1.2,2.4-1.8,3.6c-0.6,1.2-1,2.2-1.3,3c-1.1,3.1-2.2,6.3-3.3,9.4c-1,3.2-2.1,6.3-3.3,9.5
			c-2.7,8.9-4,15.2-3.9,18.9c0.1,3,1.2,4.6,3.3,4.6c1.1,0,2.6-0.7,4.3-2.2c1.9-1.4,3-2.1,3.2-2.1c0.3,0,0.5,0.2,0.5,0.6
			c0.2,1.7-0.9,3.2-3.2,4.4c-2,1.2-3.8,1.8-5.4,1.8c-4.3,0-6.6-2.8-6.9-8.4c-0.2-3.6,0.6-8.5,2.2-14.6c0.7-2.2,1.5-4.7,2.4-7.6
			c0.9-2.8,2-6,3.3-9.4c0.5-1.1,1.1-2.5,1.7-4.2c0.7-1.6,1.4-3.6,2.1-6c0.5-1.8,0.4-3-0.3-3.6C119.5,13.9,118.4,14.3,117,15.7z"/>
	</g>
	<g class="st0">
		<path class="st2" d="M117,15.7c-3.4,2.9-7.8,7.5-12.9,13.9c-3.4,4.3-6.6,8.5-9.5,12.5c-2.9,4-5.5,7.9-7.8,11.7
			c-0.7,1.2-1.3,2.4-1.9,3.4c-0.6,1-1.2,2-1.7,2.9c-0.2,0.4-0.4,0.9-0.7,1.4c-0.3,0.5-0.6,1-1,1.6c-0.2,0.1-0.6,0.1-1,0.1
			c-2.3,0-3.5-1-3.6-3c0-0.4,0.1-0.8,0.4-1.2c0.1-0.1,0.4-0.8,1-2.1c0.6-1.3,1.3-2.9,2.1-4.7c0.8-1.8,1.6-3.8,2.5-5.7
			c0.9-2,1.6-3.7,2.3-5.2c0.7-3.2,1.6-6.3,2.5-9.3c0.9-3,1.9-5.9,2.8-8.5c0.9-2.6,1.7-5,2.5-7.2c0.7-2.2,1.3-4,1.7-5.4
			c0.5-1.8,0.6-2.9,0.4-3.3c-0.2-0.4-1.1,0.1-2.6,1.5c-0.3,0.6-2.9,4-7.6,10.2c-1.3,1.8-2.6,3.5-3.8,5.2c-1.2,1.6-2.4,3.2-3.5,4.6
			c-1.1,1.4-3,3.7-5.5,6.9c-2.5,3.2-5.7,7.3-9.7,12.2c-6.6,7.2-13.8,13-21.7,17.5c-9.7,5.2-18.5,7-26.6,5.3
			c-3.7-0.8-6.6-2.3-8.7-4.4c-2.5-2.5-3.4-5.6-2.6-9.1C3.9,51.7,9,46.2,18.2,41.1c8.7-5,15.8-7,21.4-5.9c0.7,0.2,0.9,0.5,0.9,1.1
			c-0.2,0.6-0.8,0.9-2,1c-9.8,1.5-18,5-24.9,10.6C9.5,51.3,7.1,55,6.2,58.9c-1.1,5.1,1.2,8.2,7.1,9.5c8,1.6,16.7-0.5,26.1-6.5
			c7.1-4.5,14.1-10.7,21-18.5c6.9-7.7,11.7-13.2,14.4-16.6c1.4-1.6,2.7-3.3,4.1-5c1.3-1.7,2.7-3.4,4.1-5.2c0.7-1.1,1.7-2.4,2.8-3.9
			c1.1-1.5,2.5-3.3,4.1-5.4c0.8-1.7,2-2.9,3.7-3.6c1.6-0.7,3.2-1.1,4.7-1.2c1.5-0.1,2.7,0,3.6,0.2c0.9,0.2,1,0.3,0.4,0.3
			c0.7,0,1.1,0.4,1.1,1.1c0,0.2-0.2,0.7-0.6,1.4c-0.5,0.8-1,1.6-1.4,2.4c-0.5,0.8-0.9,1.6-1.3,2.4c-1.2,2.4-2.3,4.7-3.2,7
			c-0.9,2.3-1.7,4.7-2.5,7.2c-0.8,2.5-1.6,5.2-2.3,8.1c-0.8,2.9-1.7,6.2-2.6,9.9c4.9-6.2,10.3-12.5,16.1-18.7c1.8-2,3.7-3.8,5.7-5.6
			c2-1.8,3.9-3.3,5.9-4.7c2-1.4,3.9-2.4,5.7-3.2c1.8-0.8,3.5-1.2,5-1.2c0.7,0,1.1,0.4,1.1,1.1c0,0.8-0.2,1.8-0.7,2.9
			c-0.5,1.1-1,2.3-1.5,3.5c-0.6,1.2-1.2,2.4-1.8,3.6c-0.6,1.2-1,2.2-1.3,3c-1.1,3.1-2.2,6.3-3.3,9.4c-1,3.2-2.1,6.3-3.3,9.5
			c-2.7,8.9-4,15.2-3.9,18.9c0.1,3,1.2,4.6,3.3,4.6c1.1,0,2.6-0.7,4.3-2.2c1.9-1.4,3-2.1,3.2-2.1c0.3,0,0.5,0.2,0.5,0.6
			c0.2,1.7-0.9,3.2-3.2,4.4c-2,1.2-3.8,1.8-5.4,1.8c-4.3,0-6.6-2.8-6.9-8.4c-0.2-3.6,0.6-8.5,2.2-14.6c0.7-2.2,1.5-4.7,2.4-7.6
			c0.9-2.8,2-6,3.3-9.4c0.5-1.1,1.1-2.5,1.7-4.2c0.7-1.6,1.4-3.6,2.1-6c0.5-1.8,0.4-3-0.3-3.6C119.5,13.9,118.4,14.3,117,15.7z"/>
	</g>
	<g class="st0">
		<path class="st1" d="M457.5,78c-1,0.1-2.6,0.1-4.8,0.1c-2.2,0-4.8,0-7.7,0.1c-2.9,0.1-5.8,0.4-8.9,0.7c-3,0.4-5.8,1-8.2,1.9
			c-2.5,0.9-4.5,2-6,3.4c-1.5,1.4-2.2,3.2-2,5.4c0.2,1.7,0.9,3.6,2.3,5.7c1.4,2.1,2.9,4.4,4.4,7c1.5,2.5,2.9,5.2,3.9,8
			c1.1,2.8,1.3,5.7,0.9,8.7c0,1.8-0.4,4-1.1,6.4c-0.7,2.5-2,4.8-3.7,6.9c-1.9,2.5-4,4.4-6.4,5.9c-2.4,1.4-4.7,2.1-6.9,2.1
			c-3.3,0-4.9-2.1-4.9-6.2c0-5.5,2.6-10.9,7.8-16.3c4.4-4.6,7.6-6.9,9.7-6.9c1.3,0,2,0.4,2,1.2c0,0.3-0.2,0.7-0.7,1
			c-2,0.4-4.7,2.5-7.9,6.4c-4.1,4.7-6.1,9.1-6.1,13.5c0,2.8,1,4.2,2.9,4.2c2.9,0,5.7-1.7,8.7-5.1c0.7-1,1.4-2.1,2.1-3.2
			c0.7-1.2,1.2-2.3,1.7-3.5c0.5-1.2,0.9-2.3,1.2-3.4c0.3-1.1,0.4-2.1,0.4-2.9c0-2-0.1-3.7-0.4-5c-0.2-1.3-0.6-2.5-1.1-3.6
			c-0.5-1-1.1-2.1-1.8-3.1c-0.7-1-1.5-2.2-2.4-3.6c-1-1.5-1.9-2.9-2.8-4.4c-0.9-1.4-1.7-2.8-2.3-4.2c-0.7-1.4-1.1-2.8-1.3-4.2
			c-0.2-1.4-0.1-2.9,0.4-4.4c1.2-2,3.1-3.7,5.6-5.2c2.5-1.5,5.4-2.7,8.5-3.7c3.1-1,6.4-1.7,9.9-2.2c3.5-0.5,6.8-0.8,10-0.9
			c3.2-0.1,6.1,0,8.7,0.4c2.6,0.3,4.6,0.8,6,1.4c1.1,0.5,1.6,0.9,1.5,1.3s-1.1,0.5-3,0.4H457.5z"/>
		<path class="st1" d="M463.9,128.5c0,0.6-1.7,2-5,4.1c-8.2,5.3-14.1,8-17.7,8c-5.3,0-7.9-3.2-7.9-9.5c0-4.7,2.2-9.3,6.7-14
			c4.4-4.7,8.7-7,12.6-7c1.2,0,1.8,0.6,1.8,1.7c0,2.8-2.4,6.8-7.2,12c-3.8,4.1-7,6.9-9.4,8.4c0.2,3.7,2,5.5,5.1,5.5
			c3,0,8.1-2.1,15.2-6.2c0.6-0.3,2.2-1.3,4.8-3c0.2-0.2,0.5-0.4,0.7-0.4C463.8,128,463.9,128.1,463.9,128.5z M450.6,114.1
			c0-1-0.3-1.5-0.9-1.5c-2,0-4.5,2.1-7.5,6.2c-2.9,4.2-4.4,7.9-4.5,11.2c1.5-0.5,4-2.7,7.3-6.5C448.8,119.4,450.6,116.3,450.6,114.1
			z"/>
		<path class="st1" d="M497.3,128.5c0,0.4-0.6,1.1-1.8,2l-16.9,12.7c-0.2,6.4-3.1,14.9-8.8,25.6c-5.3,10-11.4,18.8-18.2,26.4
			c-7.3,8.1-13,12.1-17.1,12c-1.4,0-2.6-0.5-3.5-1.5c-1-1-1.5-2.2-1.5-3.7c0-6.2,3.7-14.3,11-24.3c5.6-7.5,12.6-15.3,20.9-23.3
			c7.3-7,11.5-10.5,12.5-10.5c0-0.5-0.1-1-0.4-1.4c-1.1-2.1-2.7-3.1-4.8-3.1c-0.8,0-1.7,0.2-2.7,0.5c-2,0.7-3.1,1-3.5,1
			c-0.2,0-0.4-0.2-0.5-0.5c0-0.8,0.8-1.6,2.4-2.2c2.6-1.2,5.7-3.4,9.4-6.6c4.3-3.9,6.5-7.1,6.5-9.5c0-1.4-0.7-2.1-2-2.1
			c-1.1,0-3.6,1.3-7.5,4c-3,2.2-6,4.5-9,6.7c-0.2,0.3-0.5,0.4-0.7,0.4c-0.2,0-0.2-0.5-0.2-1.4c0.2-0.2,1.7-1.3,4.4-3.4
			c2.7-2.1,5.4-4.3,8.2-6.6c2.8-2.3,5.4-3.4,7.6-3.4c2.9,0,4.4,1.6,4.4,4.7c0,3.8-4.8,8.9-14.4,15.3c-0.6,0.6-0.9,1-0.9,1.2
			c0,0.3,0.3,0.5,0.9,0.5c3.6,0,5.9,1.1,7.1,3.2c1.9-1.1,4.8-3.3,8.9-6.6c3.7-3,6.8-5.1,9-6.2c0.2-0.2,0.5-0.4,0.7-0.4
			C497.2,128,497.3,128.1,497.3,128.5z M474.5,146.4c0-0.3,0-0.5-0.1-0.5c-1.8,0-6.1,3.5-12.8,10.5c-7.2,7.3-13.4,14.8-18.6,22.6
			c-6.3,9.4-9.4,16.7-9.4,21.9c0,1.9,0.6,2.9,1.8,2.9c2.4,0,6.9-3.6,13.4-10.8c6.5-7.2,12.2-14.9,17.1-23.3
			C471.6,160.1,474.5,152.3,474.5,146.4z"/>
		<path class="st1" d="M570.6,51.1c0,8.4-4,18.8-11.9,31.2c-6.1,9.6-13.7,19.1-22.7,28.4c-8,8.3-12.9,12.5-14.7,12.5
			c0.2,7.8,2.6,11.7,7.2,11.7c3.5,0,7.3-1.5,11.4-4.6c-0.8-1.5-1.2-3.1-1.2-4.9c0-5.7,1.8-8.5,5.4-8.5c1.5,0,2.3,1,2.6,3.1
			c0,2.9-1.2,5.8-3.7,8.7c1.4,2.3,3.5,3.5,6.5,3.5c3.2,0,6.3-1.3,9.3-4c0.2-0.2,0.5-0.4,0.7-0.4c0.2,0,0.4,0.2,0.4,0.5
			c0,0.3-0.4,0.8-1.2,1.5c-3.6,3.1-7.2,4.6-10.9,4.6c-3,0-5.4-1-7.2-3.1c-4.8,4.5-9.5,6.7-14.1,6.7c-2.7,0-4.9-1.1-6.7-3.4
			c-1.8-2.3-2.6-5-2.6-8.3c0-9.2,3.2-20.4,9.5-33.5c5.8-12,12.7-22.6,20.7-31.9c8-9.3,14.4-13.9,19.3-13.9
			C569.3,47.2,570.6,48.5,570.6,51.1z M567.1,53c0-1.9-0.7-2.9-2.2-2.9c-3.8,0-9.3,4.7-16.5,14.1C541.6,73,535.6,83,530.2,94
			c-5.7,11.6-8.6,20.4-8.6,26.3c0,0.3,0.1,0.5,0.2,0.5c1.5,0,6-4.1,13.4-12.2c8.2-9,15.2-18,20.9-27.2
			C563.5,69.8,567.1,60.3,567.1,53z M545.5,120.8c0-0.8-0.3-1.2-0.9-1.2c-1.7,0-2.6,1.7-2.6,5.1c0,1.2,0.2,2.2,0.5,3.1
			C544.5,125.6,545.5,123.3,545.5,120.8z"/>
		<path class="st1" d="M593.1,128.5c0,0.3-0.4,0.8-1.2,1.5c-3.6,3.1-7.2,4.6-10.9,4.6c-2.3,0-4.2-0.6-5.9-1.9
			c-3.7,5-7.8,7.5-12.2,7.5c-3.3,0-4.9-2.1-4.9-6.2c0-5.4,2.6-10.8,7.8-16.3c4.4-4.6,7.6-6.9,9.7-6.9c1.3,0,2,0.4,2,1.2
			c0,0.3-0.2,0.6-0.7,1c-2,0.4-4.6,2.5-7.9,6.4c-4.1,4.7-6.1,9.1-6.1,13.5c0,2.8,1,4.2,2.9,4.2c2.9,0,5.7-1.7,8.7-5.1
			c-1.5-1.7-2.3-3.9-2.3-6.5c0-3,0.7-5.6,2.2-7.7c1.3-1.8,2.7-2.7,4.2-2.7s2.3,1,2.6,3.1c0,3.7-1.3,7.6-3.8,11.8
			c1.4,1.6,3.3,2.4,5.6,2.4c3.2,0,6.3-1.3,9.3-4c0.2-0.2,0.5-0.4,0.7-0.4C593,128,593.1,128.1,593.1,128.5z M579.7,118.9
			c0-0.8-0.3-1.2-0.9-1.2c-0.7,0-1.5,0.7-2.3,2c-0.8,1.3-1.2,3-1.2,5.1c0,1.7,0.4,3.2,1.1,4.4C578.6,125.6,579.7,122.2,579.7,118.9z
			"/>
		<path class="st1" d="M629.6,128.5c-0.3,1.1-3.1,3.2-8.4,6.4c-5.3,3.2-9.8,6-13.6,8.5c-11.7,23.3-18.9,37.3-21.8,42.1
			c-8.1,13.6-14.8,20.5-20.2,20.5c-2.4,0-3.7-1.6-3.7-4.9c0-19.1,14.1-38.4,42.4-57.9c1.9-3.7,5.3-10.8,10.3-21.3
			c0-0.1-0.1-0.1-0.2-0.1c-0.2,0-0.4,0.2-0.9,0.6c-1.6,1.6-3.8,3.6-6.5,6.1c-5.8,5.5-10.5,8.2-14.2,8.2c-1.7,0-2.6-1-2.6-3.1
			c0-3.7,2.6-8.1,7.9-13c5.7-5.3,11.3-8,16.7-8c1.5,0,2.9,0.3,3.9,1l2.6-3.6c0.6-0.7,1.1-1.1,1.7-1.1c1.1,0,1.6,0.6,1.6,1.7
			c0,0.6-0.2,1.2-0.6,1.7c-3.8,5.8-8.8,15-15,27.7c4.2-2.7,7.9-4.9,11.4-6.7c4.1-2.4,6.7-4.1,7.9-5.1c0.2-0.2,0.5-0.4,0.7-0.4
			S629.6,128.1,629.6,128.5z M602.8,146.9c-24.8,18-37.3,35.7-37.3,53.2c0,2.2,0.7,3.2,2.1,3.2C572.8,203.4,584.5,184.6,602.8,146.9
			z M618.2,115.2c0-0.3-0.4-0.5-1.1-0.5c-4.4,0-9.2,2.1-14.4,6.4c-5.2,4.3-7.8,8.1-7.8,11.4c0,1,0.4,1.5,1.3,1.5
			c3.3,0,10.5-5.9,21.4-17.8C618,115.7,618.2,115.3,618.2,115.2z"/>
		<path class="st1" d="M631.4,132.9c0,2.2,0.9,3.4,2.7,3.4c1.3,0,2.6-0.4,3.9-1.1c1.3-0.7,2.6-1.7,3.8-2.9c-1.2-1.2-1.8-2.8-1.8-4.6
			c0-2,0.5-3.7,1.7-5.2c1.1-1.5,2.3-2.2,3.7-2.2c1.4,0,2.2,0.7,2.4,2c0,1.2-0.2,2.6-0.6,4.1c-0.4,1.5-1.1,3-2.2,4.7
			c1.2,1.2,2.9,1.9,5.1,1.9c1.3,0,2.6-0.3,3.9-1c0.3-2.9,1.7-6.2,4-10c0.9-1.4,1.8-2.7,2.6-3.9s1.7-2.2,2.6-3.1
			c0.6-0.7,1.5-1.1,2.7-1.1c0.7,0.2,1,0.4,1,0.6c0,0.1-0.5,0.7-1.4,1.9c-0.9,1.2-2.1,3-3.5,5.4c-1.7,2.8-3,5.3-3.8,7.5
			c0.1,0.1,0.1,0.2,0.1,0.4c0,0.3-0.2,0.7-0.5,1.2c-0.1,0.3-0.1,0.8-0.1,1.4c0,1.3,0.4,2.3,1.1,2.9c0.7,0.6,1.7,0.9,2.8,0.9
			c2.9,0,7.6-2.4,14.1-7.2c0.2-0.2,0.5-0.4,0.7-0.4c0.2,0,0.4,0.2,0.4,0.5c0,0.5-0.8,1.3-2.4,2.5c-3.2,2.3-6.2,4.3-9,5.9
			s-5.2,2.4-7,2.4c-1.9,0-3.1-0.6-3.7-1.8c-0.6-1.2-0.9-2.6-0.9-4.2v-0.2c-1.1,0.4-2.1,0.7-3.1,1c-1,0.2-1.8,0.4-2.3,0.4
			c-1.1,0-2-0.1-2.7-0.4s-1.3-0.7-2.1-1.3c-1.7,2.1-3.7,3.7-5.9,4.9c-2.2,1.2-4.3,1.7-6.4,1.7c-1.5,0-2.7-0.6-3.4-1.9
			c-0.7-1.3-1.1-2.8-1.1-4.4c0-1.1,0.4-2.7,1.1-4.9c0.7-2.2,1.7-4.4,2.9-6.7c1.2-2.2,2.5-4.2,4-5.9c1.5-1.7,2.9-2.5,4.3-2.5
			c0.7,0.2,1,0.4,1,0.6l-4.3,7.2c-1.4,2.4-2.5,4.7-3.3,6.8C631.8,130.1,631.4,131.8,631.4,132.9z M646.4,122.8
			c0.3-0.2,0.3-0.3,0.1-0.4c-0.3-0.1-0.6-0.2-0.9-0.2c-0.7,0-1.3,0.5-1.9,1.4c-0.6,0.9-0.9,2.1-0.9,3.6c0,1.2,0.3,2.3,0.9,3.1
			c1-1.2,1.7-2.6,2.1-3.9c0.4-1.4,0.7-2.5,0.7-3.3V122.8z"/>
	</g>
	<g class="st0">
		<path class="st2" d="M457.5,78c-1,0.1-2.6,0.1-4.8,0.1c-2.2,0-4.8,0-7.7,0.1c-2.9,0.1-5.8,0.4-8.9,0.7c-3,0.4-5.8,1-8.2,1.9
			c-2.5,0.9-4.5,2-6,3.4c-1.5,1.4-2.2,3.2-2,5.4c0.2,1.7,0.9,3.6,2.3,5.7c1.4,2.1,2.9,4.4,4.4,7c1.5,2.5,2.9,5.2,3.9,8
			c1.1,2.8,1.3,5.7,0.9,8.7c0,1.8-0.4,4-1.1,6.4c-0.7,2.5-2,4.8-3.7,6.9c-1.9,2.5-4,4.4-6.4,5.9c-2.4,1.4-4.7,2.1-6.9,2.1
			c-3.3,0-4.9-2.1-4.9-6.2c0-5.5,2.6-10.9,7.8-16.3c4.4-4.6,7.6-6.9,9.7-6.9c1.3,0,2,0.4,2,1.2c0,0.3-0.2,0.7-0.7,1
			c-2,0.4-4.7,2.5-7.9,6.4c-4.1,4.7-6.1,9.1-6.1,13.5c0,2.8,1,4.2,2.9,4.2c2.9,0,5.7-1.7,8.7-5.1c0.7-1,1.4-2.1,2.1-3.2
			c0.7-1.2,1.2-2.3,1.7-3.5c0.5-1.2,0.9-2.3,1.2-3.4c0.3-1.1,0.4-2.1,0.4-2.9c0-2-0.1-3.7-0.4-5c-0.2-1.3-0.6-2.5-1.1-3.6
			c-0.5-1-1.1-2.1-1.8-3.1c-0.7-1-1.5-2.2-2.4-3.6c-1-1.5-1.9-2.9-2.8-4.4c-0.9-1.4-1.7-2.8-2.3-4.2c-0.7-1.4-1.1-2.8-1.3-4.2
			c-0.2-1.4-0.1-2.9,0.4-4.4c1.2-2,3.1-3.7,5.6-5.2c2.5-1.5,5.4-2.7,8.5-3.7c3.1-1,6.4-1.7,9.9-2.2c3.5-0.5,6.8-0.8,10-0.9
			c3.2-0.1,6.1,0,8.7,0.4c2.6,0.3,4.6,0.8,6,1.4c1.1,0.5,1.6,0.9,1.5,1.3s-1.1,0.5-3,0.4H457.5z"/>
		<path class="st2" d="M463.9,128.5c0,0.6-1.7,2-5,4.1c-8.2,5.3-14.1,8-17.7,8c-5.3,0-7.9-3.2-7.9-9.5c0-4.7,2.2-9.3,6.7-14
			c4.4-4.7,8.7-7,12.6-7c1.2,0,1.8,0.6,1.8,1.7c0,2.8-2.4,6.8-7.2,12c-3.8,4.1-7,6.9-9.4,8.4c0.2,3.7,2,5.5,5.1,5.5
			c3,0,8.1-2.1,15.2-6.2c0.6-0.3,2.2-1.3,4.8-3c0.2-0.2,0.5-0.4,0.7-0.4C463.8,128,463.9,128.1,463.9,128.5z M450.6,114.1
			c0-1-0.3-1.5-0.9-1.5c-2,0-4.5,2.1-7.5,6.2c-2.9,4.2-4.4,7.9-4.5,11.2c1.5-0.5,4-2.7,7.3-6.5C448.8,119.4,450.6,116.3,450.6,114.1
			z"/>
		<path class="st2" d="M497.3,128.5c0,0.4-0.6,1.1-1.8,2l-16.9,12.7c-0.2,6.4-3.1,14.9-8.8,25.6c-5.3,10-11.4,18.8-18.2,26.4
			c-7.3,8.1-13,12.1-17.1,12c-1.4,0-2.6-0.5-3.5-1.5c-1-1-1.5-2.2-1.5-3.7c0-6.2,3.7-14.3,11-24.3c5.6-7.5,12.6-15.3,20.9-23.3
			c7.3-7,11.5-10.5,12.5-10.5c0-0.5-0.1-1-0.4-1.4c-1.1-2.1-2.7-3.1-4.8-3.1c-0.8,0-1.7,0.2-2.7,0.5c-2,0.7-3.1,1-3.5,1
			c-0.2,0-0.4-0.2-0.5-0.5c0-0.8,0.8-1.6,2.4-2.2c2.6-1.2,5.7-3.4,9.4-6.6c4.3-3.9,6.5-7.1,6.5-9.5c0-1.4-0.7-2.1-2-2.1
			c-1.1,0-3.6,1.3-7.5,4c-3,2.2-6,4.5-9,6.7c-0.2,0.3-0.5,0.4-0.7,0.4c-0.2,0-0.2-0.5-0.2-1.4c0.2-0.2,1.7-1.3,4.4-3.4
			c2.7-2.1,5.4-4.3,8.2-6.6c2.8-2.3,5.4-3.4,7.6-3.4c2.9,0,4.4,1.6,4.4,4.7c0,3.8-4.8,8.9-14.4,15.3c-0.6,0.6-0.9,1-0.9,1.2
			c0,0.3,0.3,0.5,0.9,0.5c3.6,0,5.9,1.1,7.1,3.2c1.9-1.1,4.8-3.3,8.9-6.6c3.7-3,6.8-5.1,9-6.2c0.2-0.2,0.5-0.4,0.7-0.4
			C497.2,128,497.3,128.1,497.3,128.5z M474.5,146.4c0-0.3,0-0.5-0.1-0.5c-1.8,0-6.1,3.5-12.8,10.5c-7.2,7.3-13.4,14.8-18.6,22.6
			c-6.3,9.4-9.4,16.7-9.4,21.9c0,1.9,0.6,2.9,1.8,2.9c2.4,0,6.9-3.6,13.4-10.8c6.5-7.2,12.2-14.9,17.1-23.3
			C471.6,160.1,474.5,152.3,474.5,146.4z"/>
		<path class="st2" d="M570.6,51.1c0,8.4-4,18.8-11.9,31.2c-6.1,9.6-13.7,19.1-22.7,28.4c-8,8.3-12.9,12.5-14.7,12.5
			c0.2,7.8,2.6,11.7,7.2,11.7c3.5,0,7.3-1.5,11.4-4.6c-0.8-1.5-1.2-3.1-1.2-4.9c0-5.7,1.8-8.5,5.4-8.5c1.5,0,2.3,1,2.6,3.1
			c0,2.9-1.2,5.8-3.7,8.7c1.4,2.3,3.5,3.5,6.5,3.5c3.2,0,6.3-1.3,9.3-4c0.2-0.2,0.5-0.4,0.7-0.4c0.2,0,0.4,0.2,0.4,0.5
			c0,0.3-0.4,0.8-1.2,1.5c-3.6,3.1-7.2,4.6-10.9,4.6c-3,0-5.4-1-7.2-3.1c-4.8,4.5-9.5,6.7-14.1,6.7c-2.7,0-4.9-1.1-6.7-3.4
			c-1.8-2.3-2.6-5-2.6-8.3c0-9.2,3.2-20.4,9.5-33.5c5.8-12,12.7-22.6,20.7-31.9c8-9.3,14.4-13.9,19.3-13.9
			C569.3,47.2,570.6,48.5,570.6,51.1z M567.1,53c0-1.9-0.7-2.9-2.2-2.9c-3.8,0-9.3,4.7-16.5,14.1C541.6,73,535.6,83,530.2,94
			c-5.7,11.6-8.6,20.4-8.6,26.3c0,0.3,0.1,0.5,0.2,0.5c1.5,0,6-4.1,13.4-12.2c8.2-9,15.2-18,20.9-27.2
			C563.5,69.8,567.1,60.3,567.1,53z M545.5,120.8c0-0.8-0.3-1.2-0.9-1.2c-1.7,0-2.6,1.7-2.6,5.1c0,1.2,0.2,2.2,0.5,3.1
			C544.5,125.6,545.5,123.3,545.5,120.8z"/>
		<path class="st2" d="M593.1,128.5c0,0.3-0.4,0.8-1.2,1.5c-3.6,3.1-7.2,4.6-10.9,4.6c-2.3,0-4.2-0.6-5.9-1.9
			c-3.7,5-7.8,7.5-12.2,7.5c-3.3,0-4.9-2.1-4.9-6.2c0-5.4,2.6-10.8,7.8-16.3c4.4-4.6,7.6-6.9,9.7-6.9c1.3,0,2,0.4,2,1.2
			c0,0.3-0.2,0.6-0.7,1c-2,0.4-4.6,2.5-7.9,6.4c-4.1,4.7-6.1,9.1-6.1,13.5c0,2.8,1,4.2,2.9,4.2c2.9,0,5.7-1.7,8.7-5.1
			c-1.5-1.7-2.3-3.9-2.3-6.5c0-3,0.7-5.6,2.2-7.7c1.3-1.8,2.7-2.7,4.2-2.7s2.3,1,2.6,3.1c0,3.7-1.3,7.6-3.8,11.8
			c1.4,1.6,3.3,2.4,5.6,2.4c3.2,0,6.3-1.3,9.3-4c0.2-0.2,0.5-0.4,0.7-0.4C593,128,593.1,128.1,593.1,128.5z M579.7,118.9
			c0-0.8-0.3-1.2-0.9-1.2c-0.7,0-1.5,0.7-2.3,2c-0.8,1.3-1.2,3-1.2,5.1c0,1.7,0.4,3.2,1.1,4.4C578.6,125.6,579.7,122.2,579.7,118.9z
			"/>
		<path class="st2" d="M629.6,128.5c-0.3,1.1-3.1,3.2-8.4,6.4c-5.3,3.2-9.8,6-13.6,8.5c-11.7,23.3-18.9,37.3-21.8,42.1
			c-8.1,13.6-14.8,20.5-20.2,20.5c-2.4,0-3.7-1.6-3.7-4.9c0-19.1,14.1-38.4,42.4-57.9c1.9-3.7,5.3-10.8,10.3-21.3
			c0-0.1-0.1-0.1-0.2-0.1c-0.2,0-0.4,0.2-0.9,0.6c-1.6,1.6-3.8,3.6-6.5,6.1c-5.8,5.5-10.5,8.2-14.2,8.2c-1.7,0-2.6-1-2.6-3.1
			c0-3.7,2.6-8.1,7.9-13c5.7-5.3,11.3-8,16.7-8c1.5,0,2.9,0.3,3.9,1l2.6-3.6c0.6-0.7,1.1-1.1,1.7-1.1c1.1,0,1.6,0.6,1.6,1.7
			c0,0.6-0.2,1.2-0.6,1.7c-3.8,5.8-8.8,15-15,27.7c4.2-2.7,7.9-4.9,11.4-6.7c4.1-2.4,6.7-4.1,7.9-5.1c0.2-0.2,0.5-0.4,0.7-0.4
			S629.6,128.1,629.6,128.5z M602.8,146.9c-24.8,18-37.3,35.7-37.3,53.2c0,2.2,0.7,3.2,2.1,3.2C572.8,203.4,584.5,184.6,602.8,146.9
			z M618.2,115.2c0-0.3-0.4-0.5-1.1-0.5c-4.4,0-9.2,2.1-14.4,6.4c-5.2,4.3-7.8,8.1-7.8,11.4c0,1,0.4,1.5,1.3,1.5
			c3.3,0,10.5-5.9,21.4-17.8C618,115.7,618.2,115.3,618.2,115.2z"/>
		<path class="st2" d="M631.4,132.9c0,2.2,0.9,3.4,2.7,3.4c1.3,0,2.6-0.4,3.9-1.1c1.3-0.7,2.6-1.7,3.8-2.9c-1.2-1.2-1.8-2.8-1.8-4.6
			c0-2,0.5-3.7,1.7-5.2c1.1-1.5,2.3-2.2,3.7-2.2c1.4,0,2.2,0.7,2.4,2c0,1.2-0.2,2.6-0.6,4.1c-0.4,1.5-1.1,3-2.2,4.7
			c1.2,1.2,2.9,1.9,5.1,1.9c1.3,0,2.6-0.3,3.9-1c0.3-2.9,1.7-6.2,4-10c0.9-1.4,1.8-2.7,2.6-3.9s1.7-2.2,2.6-3.1
			c0.6-0.7,1.5-1.1,2.7-1.1c0.7,0.2,1,0.4,1,0.6c0,0.1-0.5,0.7-1.4,1.9c-0.9,1.2-2.1,3-3.5,5.4c-1.7,2.8-3,5.3-3.8,7.5
			c0.1,0.1,0.1,0.2,0.1,0.4c0,0.3-0.2,0.7-0.5,1.2c-0.1,0.3-0.1,0.8-0.1,1.4c0,1.3,0.4,2.3,1.1,2.9c0.7,0.6,1.7,0.9,2.8,0.9
			c2.9,0,7.6-2.4,14.1-7.2c0.2-0.2,0.5-0.4,0.7-0.4c0.2,0,0.4,0.2,0.4,0.5c0,0.5-0.8,1.3-2.4,2.5c-3.2,2.3-6.2,4.3-9,5.9
			s-5.2,2.4-7,2.4c-1.9,0-3.1-0.6-3.7-1.8c-0.6-1.2-0.9-2.6-0.9-4.2v-0.2c-1.1,0.4-2.1,0.7-3.1,1c-1,0.2-1.8,0.4-2.3,0.4
			c-1.1,0-2-0.1-2.7-0.4s-1.3-0.7-2.1-1.3c-1.7,2.1-3.7,3.7-5.9,4.9c-2.2,1.2-4.3,1.7-6.4,1.7c-1.5,0-2.7-0.6-3.4-1.9
			c-0.7-1.3-1.1-2.8-1.1-4.4c0-1.1,0.4-2.7,1.1-4.9c0.7-2.2,1.7-4.4,2.9-6.7c1.2-2.2,2.5-4.2,4-5.9c1.5-1.7,2.9-2.5,4.3-2.5
			c0.7,0.2,1,0.4,1,0.6l-4.3,7.2c-1.4,2.4-2.5,4.7-3.3,6.8C631.8,130.1,631.4,131.8,631.4,132.9z M646.4,122.8
			c0.3-0.2,0.3-0.3,0.1-0.4c-0.3-0.1-0.6-0.2-0.9-0.2c-0.7,0-1.3,0.5-1.9,1.4c-0.6,0.9-0.9,2.1-0.9,3.6c0,1.2,0.3,2.3,0.9,3.1
			c1-1.2,1.7-2.6,2.1-3.9c0.4-1.4,0.7-2.5,0.7-3.3V122.8z"/>
	</g>
	<g class="st0">
		<path class="st1" d="M197.8,20.8H192v9.2h-1V19.9h6.8V20.8z"/>
	</g>
	<g class="st0">
		<path class="st1" d="M207.2,19.9v10.1h-1v-9.2h-4.8c-0.1,1.3-0.2,2.5-0.3,3.7c-0.1,1.1-0.4,2.1-0.6,2.9c-0.3,0.8-0.7,1.5-1.2,1.9
			c-0.5,0.5-1.2,0.7-2,0.7h-0.1v-0.9h0.1c0.7,0,1.3-0.3,1.7-0.8s0.7-1.2,0.9-2.1s0.4-1.9,0.5-3c0.1-1.1,0.2-2.3,0.2-3.5H207.2z"/>
	</g>
	<g class="st0">
		<path class="st1" d="M209.7,33.3c0.1,0.1,0.3,0.2,0.5,0.3c0.2,0.1,0.5,0.2,0.8,0.2c0.4,0,0.8-0.2,1-0.5c0.2-0.3,0.5-0.7,0.7-1.3
			l0.8-2.1l-4.5-10h1.1l3.9,8.8l3.3-8.8h1.1l-4.9,12.5c-0.1,0.2-0.2,0.5-0.3,0.7c-0.1,0.3-0.3,0.5-0.5,0.7c-0.2,0.2-0.4,0.4-0.7,0.6
			c-0.3,0.2-0.6,0.2-1,0.2c-0.4,0-0.8-0.1-1.1-0.2c-0.3-0.1-0.5-0.3-0.8-0.5L209.7,33.3z"/>
	</g>
	<g class="st0">
		<path class="st1" d="M225.2,20c0.7,0,1.4,0.1,2,0.4c0.6,0.3,1.1,0.6,1.6,1.1c0.4,0.5,0.8,1,1,1.6c0.3,0.6,0.4,1.3,0.4,2
			c0,0.7-0.1,1.4-0.4,2c-0.2,0.6-0.6,1.2-1,1.7c-0.5,0.5-1,0.9-1.6,1.1c-0.6,0.3-1.3,0.4-2.1,0.4c-0.6,0-1.2-0.1-1.8-0.3
			c-0.6-0.2-1.1-0.5-1.6-1c-0.5-0.5-0.9-1.1-1.2-1.9c-0.3-0.8-0.5-1.8-0.5-3c0-1.4,0.1-2.7,0.4-3.6s0.7-1.8,1.2-2.5
			c0.6-0.6,1.3-1.1,2.1-1.5c0.9-0.3,1.9-0.6,3.2-0.7l2.3-0.2l0.1,0.9l-2.3,0.2c-1,0.1-1.9,0.2-2.6,0.5c-0.7,0.2-1.4,0.6-1.9,1
			c-0.5,0.5-0.9,1-1.1,1.7s-0.4,1.6-0.5,2.6c0.4-0.9,1-1.5,1.8-1.9C223.4,20.2,224.3,20,225.2,20z M225.1,29.4
			c0.6,0,1.2-0.1,1.7-0.3c0.5-0.2,0.9-0.5,1.3-0.9c0.3-0.4,0.6-0.8,0.8-1.4s0.3-1.1,0.3-1.7c0-0.6-0.1-1.1-0.3-1.6
			c-0.2-0.5-0.5-1-0.8-1.3c-0.3-0.4-0.8-0.7-1.3-0.9c-0.5-0.2-1.1-0.3-1.7-0.3c-0.6,0-1.2,0.1-1.7,0.3c-0.5,0.2-0.9,0.5-1.3,0.9
			c-0.3,0.4-0.6,0.8-0.8,1.3c-0.2,0.5-0.3,1-0.3,1.6s0.1,1.1,0.3,1.6c0.2,0.5,0.5,1,0.8,1.4c0.4,0.4,0.8,0.7,1.3,0.9
			C223.9,29.3,224.5,29.4,225.1,29.4z"/>
		<path class="st1" d="M237.4,30.3c-0.7,0-1.4-0.1-2-0.4c-0.6-0.3-1.2-0.7-1.6-1.1c-0.5-0.5-0.8-1-1.1-1.7c-0.3-0.6-0.4-1.3-0.4-2.1
			s0.1-1.4,0.4-2.1c0.3-0.6,0.6-1.2,1.1-1.7c0.5-0.5,1-0.9,1.6-1.1c0.6-0.3,1.3-0.4,2-0.4c0.7,0,1.4,0.1,2,0.4s1.2,0.7,1.6,1.1
			c0.5,0.5,0.8,1,1.1,1.7s0.4,1.3,0.4,2.1s-0.1,1.4-0.4,2.1s-0.6,1.2-1.1,1.7c-0.5,0.5-1,0.9-1.6,1.1S238.1,30.3,237.4,30.3z
			 M237.4,29.4c0.6,0,1.1-0.1,1.6-0.3c0.5-0.2,0.9-0.5,1.3-0.9c0.4-0.4,0.7-0.9,0.9-1.4s0.3-1.1,0.3-1.7c0-0.6-0.1-1.2-0.3-1.7
			s-0.5-1-0.9-1.4s-0.8-0.7-1.3-1c-0.5-0.2-1-0.4-1.6-0.4c-0.6,0-1.1,0.1-1.6,0.3c-0.5,0.2-0.9,0.5-1.3,0.9s-0.7,0.9-0.9,1.4
			c-0.2,0.5-0.3,1.1-0.3,1.7c0,0.6,0.1,1.2,0.3,1.7s0.5,1,0.9,1.4s0.8,0.7,1.3,1C236.3,29.3,236.8,29.4,237.4,29.4z"/>
	</g>
	<g class="st0">
		<path class="st1" d="M246,30.1h-1V19.9h1v4.5h1.9c0.4,0,0.8-0.1,1.1-0.3c0.3-0.2,0.6-0.5,0.8-0.9l2.3-3.2h1l-2.4,3.5
			c-0.2,0.3-0.4,0.6-0.7,0.8c-0.2,0.2-0.5,0.4-0.9,0.6c0.3,0.1,0.5,0.2,0.7,0.4c0.2,0.2,0.4,0.4,0.6,0.8l2.9,4.1h-1.2l-2.7-3.8
			c-0.2-0.3-0.4-0.6-0.7-0.7c-0.2-0.2-0.6-0.2-1.1-0.2H246V30.1z"/>
	</g>
	<g class="st0">
		<path class="st1" d="M259.5,30.3c-0.7,0-1.4-0.1-2-0.4c-0.6-0.3-1.2-0.7-1.6-1.1c-0.5-0.5-0.8-1-1.1-1.7c-0.3-0.6-0.4-1.3-0.4-2.1
			s0.1-1.4,0.4-2.1c0.3-0.6,0.6-1.2,1.1-1.7c0.5-0.5,1-0.9,1.6-1.1c0.6-0.3,1.3-0.4,2-0.4c0.7,0,1.4,0.1,2,0.4s1.2,0.7,1.6,1.1
			c0.5,0.5,0.8,1,1.1,1.7s0.4,1.3,0.4,2.1s-0.1,1.4-0.4,2.1s-0.6,1.2-1.1,1.7c-0.5,0.5-1,0.9-1.6,1.1S260.2,30.3,259.5,30.3z
			 M259.5,29.4c0.6,0,1.1-0.1,1.6-0.3c0.5-0.2,0.9-0.5,1.3-0.9c0.4-0.4,0.7-0.9,0.9-1.4s0.3-1.1,0.3-1.7c0-0.6-0.1-1.2-0.3-1.7
			s-0.5-1-0.9-1.4s-0.8-0.7-1.3-1c-0.5-0.2-1-0.4-1.6-0.4c-0.6,0-1.1,0.1-1.6,0.3c-0.5,0.2-0.9,0.5-1.3,0.9s-0.7,0.9-0.9,1.4
			c-0.2,0.5-0.3,1.1-0.3,1.7c0,0.6,0.1,1.2,0.3,1.7s0.5,1,0.9,1.4s0.8,0.7,1.3,1C258.3,29.3,258.9,29.4,259.5,29.4z"/>
		<path class="st1" d="M271.7,29.4c0.3,0,0.6,0,0.9-0.1s0.6-0.2,0.9-0.3s0.6-0.3,0.8-0.5c0.3-0.2,0.5-0.4,0.6-0.6l0.7,0.6
			c-0.4,0.6-1,1-1.8,1.3c-0.7,0.3-1.5,0.5-2.3,0.5c-0.7,0-1.4-0.1-2.1-0.4c-0.6-0.3-1.2-0.6-1.6-1.1c-0.5-0.5-0.8-1-1.1-1.7
			s-0.4-1.4-0.4-2.2c0-0.7,0.1-1.4,0.4-2c0.2-0.6,0.6-1.2,1-1.7s0.9-0.9,1.5-1.1s1.2-0.4,2-0.4c0.7,0,1.3,0.1,1.9,0.4
			s1.1,0.6,1.5,1.1c0.4,0.5,0.8,1,1,1.7c0.2,0.7,0.4,1.5,0.4,2.4h-8.6c0,0.6,0.2,1.2,0.4,1.7c0.2,0.5,0.5,1,0.9,1.3
			c0.4,0.4,0.8,0.7,1.3,0.8C270.6,29.3,271.2,29.4,271.7,29.4z M275.2,24.3c-0.1-1.2-0.5-2.2-1.2-2.8c-0.7-0.6-1.5-1-2.5-1
			c-0.5,0-0.9,0.1-1.4,0.3s-0.8,0.4-1.2,0.7c-0.3,0.3-0.6,0.7-0.8,1.2s-0.3,1-0.4,1.6H275.2z"/>
		<path class="st1" d="M291.6,19.9v10.1h-1v-9.2h-6.9v9.2h-1V19.9H291.6z"/>
		<path class="st1" d="M299.2,30.3c-0.7,0-1.4-0.1-2-0.4c-0.6-0.3-1.2-0.7-1.6-1.1c-0.5-0.5-0.8-1-1.1-1.7c-0.3-0.6-0.4-1.3-0.4-2.1
			s0.1-1.4,0.4-2.1c0.3-0.6,0.6-1.2,1.1-1.7c0.5-0.5,1-0.9,1.6-1.1c0.6-0.3,1.3-0.4,2-0.4c0.7,0,1.4,0.1,2,0.4s1.2,0.7,1.6,1.1
			c0.5,0.5,0.8,1,1.1,1.7s0.4,1.3,0.4,2.1s-0.1,1.4-0.4,2.1s-0.6,1.2-1.1,1.7c-0.5,0.5-1,0.9-1.6,1.1S299.9,30.3,299.2,30.3z
			 M299.2,29.4c0.6,0,1.1-0.1,1.6-0.3c0.5-0.2,0.9-0.5,1.3-0.9c0.4-0.4,0.7-0.9,0.9-1.4s0.3-1.1,0.3-1.7c0-0.6-0.1-1.2-0.3-1.7
			s-0.5-1-0.9-1.4s-0.8-0.7-1.3-1c-0.5-0.2-1-0.4-1.6-0.4c-0.6,0-1.1,0.1-1.6,0.3c-0.5,0.2-0.9,0.5-1.3,0.9s-0.7,0.9-0.9,1.4
			c-0.2,0.5-0.3,1.1-0.3,1.7c0,0.6,0.1,1.2,0.3,1.7s0.5,1,0.9,1.4s0.8,0.7,1.3,1C298.1,29.3,298.7,29.4,299.2,29.4z"/>
		<path class="st1" d="M313.7,20.8h-5.8v9.2h-1V19.9h6.8V20.8z"/>
	</g>
	<g class="st0">
		<path class="st1" d="M315.9,34.4V22.1c0-0.3,0-0.5,0-0.7s0-0.4,0-0.5s0-0.3,0-0.4s0-0.3,0-0.4h0.9c0,0.2,0,0.3,0,0.4
			c0,0.1,0,0.3,0,0.4c0,0.1,0,0.3,0,0.4s0,0.4,0,0.6c0.1-0.1,0.2-0.3,0.4-0.5c0.2-0.2,0.4-0.5,0.7-0.7s0.7-0.4,1.1-0.6
			c0.4-0.2,1-0.3,1.6-0.3c0.8,0,1.4,0.1,2,0.4c0.6,0.3,1,0.7,1.4,1.1s0.6,1.1,0.8,1.7c0.2,0.7,0.3,1.4,0.3,2.1
			c0,0.8-0.1,1.5-0.4,2.2c-0.3,0.6-0.6,1.2-1.1,1.7s-1,0.8-1.6,1.1c-0.6,0.3-1.3,0.4-2,0.4c-0.7,0-1.3-0.1-1.8-0.3
			c-0.5-0.2-0.9-0.4-1.3-0.6v5H315.9z M316.8,28.3c0.1,0.1,0.2,0.2,0.4,0.3c0.2,0.1,0.4,0.2,0.7,0.4c0.3,0.1,0.6,0.2,0.9,0.3
			c0.3,0.1,0.7,0.1,1.2,0.1c0.6,0,1.1-0.1,1.6-0.3c0.5-0.2,0.9-0.5,1.3-0.8s0.6-0.8,0.9-1.4c0.2-0.5,0.3-1.2,0.3-1.9
			c0-0.6-0.1-1.2-0.2-1.7c-0.1-0.5-0.3-1-0.6-1.4c-0.3-0.4-0.6-0.7-1.1-1c-0.4-0.2-1-0.4-1.7-0.4c-0.4,0-0.8,0.1-1.2,0.2
			c-0.4,0.1-0.7,0.3-0.9,0.5c-0.3,0.2-0.5,0.5-0.7,0.8c-0.2,0.3-0.4,0.6-0.5,0.9c-0.1,0.3-0.2,0.6-0.2,0.9c0,0.4-0.1,0.7-0.1,1.1
			V28.3z"/>
	</g>
	<g class="st0">
		<path class="st1" d="M326.6,33.3c0.1,0.1,0.3,0.2,0.5,0.3c0.2,0.1,0.5,0.2,0.8,0.2c0.4,0,0.8-0.2,1-0.5c0.2-0.3,0.5-0.7,0.7-1.3
			l0.8-2.1l-4.5-10h1.1l3.9,8.8l3.3-8.8h1.1l-4.9,12.5c-0.1,0.2-0.2,0.5-0.3,0.7c-0.1,0.3-0.3,0.5-0.5,0.7c-0.2,0.2-0.4,0.4-0.7,0.6
			c-0.3,0.2-0.6,0.2-1,0.2c-0.4,0-0.8-0.1-1.1-0.2c-0.3-0.1-0.5-0.3-0.8-0.5L326.6,33.3z"/>
	</g>
	<g class="st0">
		<path class="st1" d="M344,30.1h-0.9v-4.7h-1.4c-0.5,0-0.8,0.1-1,0.2c-0.2,0.2-0.4,0.4-0.6,0.7l-2.5,3.8h-1.1l2.7-4.1
			c0.2-0.3,0.4-0.6,0.6-0.8c0.2-0.2,0.4-0.3,0.6-0.4c-0.3-0.1-0.6-0.3-0.8-0.6c-0.2-0.2-0.4-0.5-0.6-0.8l-2.2-3.5h1l2.1,3.2
			c0.3,0.4,0.5,0.7,0.8,0.9c0.3,0.2,0.6,0.3,1,0.3h1.5v-4.5h0.9v4.5h1.5c0.4,0,0.8-0.1,1-0.3c0.3-0.2,0.5-0.5,0.8-0.9l2.1-3.2h1
			l-2.2,3.5c-0.2,0.3-0.4,0.6-0.6,0.8c-0.2,0.2-0.5,0.4-0.8,0.6c0.2,0.1,0.5,0.2,0.6,0.4c0.2,0.2,0.4,0.4,0.6,0.8l2.7,4.1h-1.2
			l-2.5-3.8c-0.2-0.3-0.4-0.6-0.6-0.7c-0.2-0.2-0.6-0.2-1-0.2H344V30.1z"/>
	</g>
	<g class="st0">
		<path class="st1" d="M356.7,29.4c0.3,0,0.6,0,0.9-0.1c0.3-0.1,0.6-0.2,0.9-0.3s0.6-0.3,0.8-0.5c0.3-0.2,0.5-0.4,0.6-0.6l0.7,0.6
			c-0.4,0.6-1,1-1.8,1.3c-0.7,0.3-1.5,0.5-2.3,0.5c-0.7,0-1.4-0.1-2.1-0.4c-0.6-0.3-1.2-0.6-1.6-1.1c-0.5-0.5-0.8-1-1.1-1.7
			s-0.4-1.4-0.4-2.2c0-0.7,0.1-1.4,0.4-2c0.2-0.6,0.6-1.2,1-1.7s0.9-0.9,1.5-1.1c0.6-0.3,1.2-0.4,2-0.4c0.7,0,1.3,0.1,1.9,0.4
			s1.1,0.6,1.5,1.1c0.4,0.5,0.8,1,1,1.7c0.2,0.7,0.4,1.5,0.4,2.4h-8.6c0,0.6,0.2,1.2,0.4,1.7c0.2,0.5,0.5,1,0.9,1.3s0.8,0.7,1.3,0.8
			C355.6,29.3,356.1,29.4,356.7,29.4z M360.1,24.3c-0.1-1.2-0.5-2.2-1.2-2.8c-0.7-0.6-1.5-1-2.5-1c-0.5,0-0.9,0.1-1.4,0.3
			c-0.4,0.2-0.8,0.4-1.2,0.7c-0.3,0.3-0.6,0.7-0.8,1.2s-0.3,1-0.4,1.6H360.1z"/>
		<path class="st1" d="M372.5,19.9v10.1h-1v-4.7h-6.9v4.7h-1V19.9h1v4.5h6.9v-4.5H372.5z"/>
		<path class="st1" d="M376.5,19.9v8.9l6.7-8.9h1v10.1h-1v-8.9l-6.7,8.9h-1V19.9H376.5z"/>
		<path class="st1" d="M391.9,29.4c0.3,0,0.6,0,0.9-0.1c0.3-0.1,0.6-0.2,0.9-0.3s0.6-0.3,0.8-0.5c0.3-0.2,0.5-0.4,0.6-0.6l0.7,0.6
			c-0.4,0.6-1,1-1.8,1.3c-0.7,0.3-1.5,0.5-2.3,0.5c-0.7,0-1.4-0.1-2.1-0.4c-0.6-0.3-1.2-0.6-1.6-1.1c-0.5-0.5-0.8-1-1.1-1.7
			s-0.4-1.4-0.4-2.2c0-0.7,0.1-1.4,0.4-2c0.2-0.6,0.6-1.2,1-1.7s0.9-0.9,1.5-1.1c0.6-0.3,1.2-0.4,2-0.4c0.7,0,1.3,0.1,1.9,0.4
			s1.1,0.6,1.5,1.1c0.4,0.5,0.8,1,1,1.7c0.2,0.7,0.4,1.5,0.4,2.4h-8.6c0,0.6,0.2,1.2,0.4,1.7s0.5,1,0.9,1.3c0.4,0.4,0.8,0.7,1.3,0.8
			C390.8,29.3,391.3,29.4,391.9,29.4z M395.3,24.3c-0.1-1.2-0.5-2.2-1.2-2.8c-0.7-0.6-1.5-1-2.5-1c-0.5,0-0.9,0.1-1.4,0.3
			c-0.4,0.2-0.8,0.4-1.2,0.7c-0.3,0.3-0.6,0.7-0.8,1.2s-0.3,1-0.4,1.6H395.3z"/>
		<path class="st1" d="M402.8,30.1V19.9h4.9c1.1,0,1.9,0.2,2.4,0.7c0.5,0.5,0.8,1.1,0.8,1.8c0,0.6-0.2,1.1-0.5,1.5
			c-0.3,0.4-0.8,0.7-1.3,0.8c0.3,0,0.6,0.1,0.9,0.2c0.3,0.1,0.5,0.3,0.7,0.5c0.2,0.2,0.4,0.5,0.5,0.8c0.1,0.3,0.2,0.7,0.2,1.1
			c0,0.5-0.1,0.9-0.3,1.3c-0.2,0.3-0.4,0.6-0.7,0.8c-0.3,0.2-0.7,0.4-1.1,0.5s-0.8,0.1-1.3,0.1H402.8z M403.8,24.4h3.6
			c0.3,0,0.6,0,0.9-0.1c0.3-0.1,0.6-0.2,0.8-0.3s0.4-0.3,0.5-0.6c0.1-0.2,0.2-0.5,0.2-0.9c0-0.4-0.1-0.7-0.2-0.9
			c-0.1-0.2-0.3-0.4-0.5-0.5c-0.2-0.1-0.4-0.2-0.7-0.2c-0.3,0-0.5-0.1-0.8-0.1h-3.9V24.4z M403.8,29.2h3.9c0.3,0,0.5,0,0.8,0
			s0.6-0.1,0.8-0.2c0.3-0.1,0.5-0.3,0.7-0.6s0.3-0.6,0.3-1.1c0-0.4-0.1-0.7-0.2-1c-0.2-0.3-0.4-0.5-0.6-0.6c-0.3-0.2-0.6-0.3-1-0.3
			s-0.8-0.1-1.2-0.1h-3.5V29.2z"/>
	</g>
	<g class="st0">
		<path class="st1" d="M498.5,91.8v10.1h-1v-4.7h-6.9v4.7h-1V91.8h1v4.5h6.9v-4.5H498.5z"/>
		<path class="st1" d="M506.2,102.2c-0.7,0-1.4-0.1-2-0.4s-1.2-0.7-1.6-1.1c-0.5-0.5-0.8-1-1.1-1.7s-0.4-1.3-0.4-2.1
			s0.1-1.4,0.4-2.1s0.6-1.2,1.1-1.7c0.5-0.5,1-0.9,1.6-1.1s1.3-0.4,2-0.4s1.4,0.1,2,0.4s1.2,0.7,1.6,1.1c0.5,0.5,0.8,1,1.1,1.7
			s0.4,1.3,0.4,2.1s-0.1,1.4-0.4,2.1s-0.6,1.2-1.1,1.7c-0.5,0.5-1,0.9-1.6,1.1S506.9,102.2,506.2,102.2z M506.2,101.3
			c0.6,0,1.1-0.1,1.6-0.3s0.9-0.5,1.3-0.9c0.4-0.4,0.7-0.9,0.9-1.4c0.2-0.5,0.3-1.1,0.3-1.7c0-0.6-0.1-1.2-0.3-1.7s-0.5-1-0.9-1.4
			s-0.8-0.7-1.3-1c-0.5-0.2-1-0.4-1.6-0.4c-0.6,0-1.1,0.1-1.6,0.3s-0.9,0.5-1.3,0.9s-0.7,0.9-0.9,1.4c-0.2,0.5-0.3,1.1-0.3,1.7
			c0,0.6,0.1,1.2,0.3,1.7s0.5,1,0.9,1.4s0.8,0.7,1.3,1C505.1,101.2,505.6,101.3,506.2,101.3z"/>
	</g>
</g>
</svg>
