<?xml version="1.0" encoding="iso-8859-1"?>
<!-- Generator: Adobe Illustrator 19.0.0, SVG Export Plug-In . SVG Version: 6.00 Build 0)  -->
<svg xmlns="http://www.w3.org/2000/svg" xmlns:xlink="http://www.w3.org/1999/xlink" version="1.1" id="Capa_1" x="0px" y="0px" viewBox="0 0 512 512" style="enable-background:new 0 0 512 512;" xml:space="preserve" width="512px" height="512px">
<g>
	<g>
		<path d="M384.001,309.333V32c0-17.673-14.327-32-32-32h-256c-2.829,0.001-5.541,1.125-7.541,3.125L3.126,88.459    c-2,2-3.125,4.713-3.125,7.541v384c0,17.673,14.327,32,32,32h320c17.673,0,32-14.327,32-32v-21.333h-21.333V480    c0,5.891-4.776,10.667-10.667,10.667h-320c-5.891,0-10.667-4.776-10.667-10.667V100.416l79.083-79.083h251.584    c5.891,0,10.667,4.776,10.667,10.667v277.333H384.001z" fill="#9f8998"/>
	</g>
</g>
<g>
	<g>
		<path d="M85.334,10.667v64c0,5.891-4.776,10.667-10.667,10.667H53.334v21.333h21.333c17.673,0,32-14.327,32-32v-64H85.334z" fill="#9f8998"/>
	</g>
</g>
<g>
	<g>
		<path d="M298.668,138.667H85.334c-5.891,0-10.667,4.776-10.667,10.667v213.333c0,5.891,4.776,10.667,10.667,10.667h213.333    c5.891,0,10.667-4.776,10.667-10.667V149.333C309.334,143.442,304.559,138.667,298.668,138.667z M288.001,352h-192V160h192V352z" fill="#9f8998"/>
	</g>
</g>
<g>
	<g>
		<rect x="138.668" y="149.333" width="21.333" height="149.333" fill="#9f8998"/>
	</g>
</g>
<g>
	<g>
		<rect x="138.668" y="330.667" width="21.333" height="32" fill="#9f8998"/>
	</g>
</g>
<g>
	<g>
		<rect x="149.334" y="234.667" width="74.667" height="21.333" fill="#9f8998"/>
	</g>
</g>
<g>
	<g>
		<rect x="256.001" y="234.667" width="42.667" height="21.333" fill="#9f8998"/>
	</g>
</g>
<g>
	<g>
		<path d="M508.876,277.995l-29.536-29.536c-4.165-4.164-10.917-4.164-15.083,0L301.793,410.923c-4.164,4.165-4.164,10.917,0,15.083    l29.536,29.536c2,2,4.713,3.125,7.541,3.125c2.829-0.001,5.541-1.125,7.541-3.125l162.464-162.464    C513.04,288.912,513.04,282.16,508.876,277.995z M338.87,432.917l-14.453-14.453l147.381-147.381l14.453,14.453L338.87,432.917z" fill="#9f8998"/>
	</g>
</g>
<g>
	<g>
		<path d="M320.001,437.333V416h-21.333v32c0,5.891,4.776,10.667,10.667,10.667h32v-21.333H320.001z" fill="#9f8998"/>
	</g>
</g>
<g>
	<g>
		<rect x="42.668" y="448" width="64" height="21.333" fill="#9f8998"/>
	</g>
</g>
<g>
	<g>
		<rect x="128.001" y="448" width="21.333" height="21.333" fill="#9f8998"/>
	</g>
</g>
<g>
</g>
<g>
</g>
<g>
</g>
<g>
</g>
<g>
</g>
<g>
</g>
<g>
</g>
<g>
</g>
<g>
</g>
<g>
</g>
<g>
</g>
<g>
</g>
<g>
</g>
<g>
</g>
<g>
</g>
</svg>
