<?xml version="1.0" encoding="utf-8"?>
<!-- Generator: Adobe Illustrator 21.1.0, SVG Export Plug-In . SVG Version: 6.00 Build 0)  -->
<svg version="1.1" id="Layer_1" xmlns="http://www.w3.org/2000/svg" xmlns:xlink="http://www.w3.org/1999/xlink" x="0px" y="0px"
	 viewBox="0 0 169.1 169.1" style="enable-background:new 0 0 169.1 169.1;" xml:space="preserve">
<g>
	<path d="M84.5,56C68.8,56,56,68.8,56,84.5c0,15.7,12.8,28.6,28.6,28.6s28.6-12.8,28.6-28.6C113.1,68.8,100.3,56,84.5,56z"/>
	<path d="M122.4,0H46.7C20.9,0,0,20.9,0,46.7v75.8c0,25.7,20.9,46.7,46.7,46.7h75.8c25.7,0,46.7-20.9,46.7-46.7V46.7
		C169.1,20.9,148.1,0,122.4,0z M84.5,128.1c-24,0-43.6-19.5-43.6-43.6C41,60.5,60.5,41,84.5,41s43.6,19.5,43.6,43.6
		C128.1,108.6,108.6,128.1,84.5,128.1z M137.7,47c-2,2-4.9,3.2-7.8,3.2c-2.9,0-5.7-1.2-7.8-3.2c-2-2.1-3.2-4.9-3.2-7.8
		c0-2.9,1.2-5.7,3.2-7.8c2-2.1,4.9-3.2,7.8-3.2c2.9,0,5.7,1.2,7.8,3.2c2.1,2,3.2,4.9,3.2,7.8C140.9,42.1,139.8,45,137.7,47z"/>
</g>
</svg>
