<?xml version="1.0" encoding="utf-8"?>
<!-- Generator: Adobe Illustrator 21.1.0, SVG Export Plug-In . SVG Version: 6.00 Build 0)  -->
<svg version="1.1" id="Слой_1" xmlns="http://www.w3.org/2000/svg" xmlns:xlink="http://www.w3.org/1999/xlink" x="0px" y="0px"
	 viewBox="0 0 326.8 372.6" style="enable-background:new 0 0 326.8 372.6;" xml:space="preserve">
<style type="text/css">
	.st0{fill:#9f8998;}
</style>
<g>
	<path class="st0" d="M1.4,117.1c0.2,0.3,0.5,0.6,0.7,0.8v-10.1C-0.4,110.3-0.8,114.2,1.4,117.1z"/>
	<path class="st0" d="M148.3,0h1.6C149.4-0.1,148.9-0.1,148.3,0z"/>
	<path class="st0" d="M11.3,118.6h-0.1l138-102.7l138,102.7c3.2,2.3,7.6,1.7,9.9-1.5s1.7-7.6-1.5-9.9L153.6,1.5
		c-1.1-0.8-2.3-1.3-3.6-1.5h-1.6c-1.2,0.1-2.3,0.6-3.3,1.3L2.8,107.2c-0.3,0.2-0.5,0.4-0.7,0.6V118C4.5,120.4,8.4,120.7,11.3,118.6z
		"/>
	<path class="st0" d="M293.7,311.4l1.5,1.6C294.8,312.4,294.3,311.9,293.7,311.4z"/>
	<path class="st0" d="M296.1,372.6h-1.6C295.1,372.7,295.6,372.7,296.1,372.6z"/>
	<path class="st0" d="M177.5,314.5c-1.5-1.3-1.8-2.9-1.5-4.4l-159.7,0.5V146.1l133-100.3l133,100.3v77c0.2-0.1,0.5-0.1,0.7-0.1
		c4.3-0.5,7,0.6,8.7,2.7c1.7,0.7,3.3,1.5,4.8,2.5v-85.5c0-2.1-1-4.3-2.8-5.6l-140-105.5c-2.4-2-6.1-2.1-8.7-0.1L5.3,136.8
		c-2,1.2-3.2,3.4-3.2,5.9V318c0,3.8,3.2,7,7.1,7h0.6v-0.1l178.7-0.5C184.8,321.2,181.1,317.9,177.5,314.5z"/>
</g>
<path class="st0" d="M313.1,227.5c-9.3-10.3-22.2-16-36.3-16c-19.9,0-32.5,11.6-39.5,21.3c-1.2,1.6-2.3,3.3-3.3,5.1
	c-1.1-1.8-2.2-3.5-3.3-5.1c-7-9.7-19.6-21.3-39.5-21.3c-14.1,0-27,5.7-36.3,16c-8.8,9.8-13.7,23-13.7,37c0,15.3,6.1,29.4,19.1,44.6
	c11.5,13.4,27.9,27.1,47,43l0.1,0.1c7,5.9,14.3,11.9,22,18.6l0.2,0.2c1.2,1.1,2.8,1.7,4.5,1.7c1.7,0,3.3-0.6,4.5-1.7l0.2-0.2
	c7.8-6.7,15.1-12.7,22.2-18.7c19-15.9,35.5-29.6,46.9-43c13-15.1,19.1-29.3,19.1-44.6C326.8,250.5,321.9,237.3,313.1,227.5z
	 M313.1,264.5c0,26.2-24.3,46.5-61.2,77.3c-5.8,4.8-11.7,9.8-18,15.1c-6.4-5.4-12.6-10.6-18-15.1c-36.8-30.7-61.2-51-61.2-77.3
	c0-10.8,3.6-20.7,10.3-28.1c6.7-7.4,15.9-11.5,26.1-11.5c14.1,0,23.2,8.5,28.3,15.7c4.7,6.5,7.2,13,8,15.6c0.9,2.8,3.5,4.6,6.5,4.6
	s5.6-1.9,6.5-4.6c0.8-2.5,3.3-9.1,8-15.6c5.2-7.1,14.3-15.7,28.3-15.7c10.1,0,19.4,4.1,26.1,11.5
	C309.4,243.8,313.1,253.8,313.1,264.5z"/>
</svg>
