<?xml version="1.0" encoding="iso-8859-1"?>
<!-- Generator: Adobe Illustrator 19.0.0, SVG Export Plug-In . SVG Version: 6.00 Build 0)  -->
<svg xmlns="http://www.w3.org/2000/svg" xmlns:xlink="http://www.w3.org/1999/xlink" version="1.1" id="Capa_1" x="0px" y="0px" viewBox="0 0 508 508" style="enable-background:new 0 0 508 508;" xml:space="preserve" width="512px" height="512px">
<g>
	<g>
		<path d="M0,508h508V0L0,508z M492,59.4h-16v16h16v32h-24v16h24v32h-16v16h16v32h-24v16h24v32h-16v16h16v32h-24v16h24v32h-16v16h16    v32h-24v16h24v32h-16v16h16v32h-32.1V476h-16v16h-32v-24h-16v24h-32v-16h-16v16h-32v-24h-16v24h-32v-16h-16v16h-32v-24h-16v24h-32    v-16h-16v16h-32v-24h-16v24h-32v-16h-16v16H38.7L492,38.7V59.4z" fill="#9f8998"/>
	</g>
</g>
<g>
	<g>
		<path d="M184.2,435.9h251.7V184.2L184.2,435.9z M419.9,419.9h-197l197-197V419.9z" fill="#9f8998"/>
	</g>
</g>
<g>
	<g>
		<path d="M367.9,39.3c-15.6-15.6-41-15.6-56.6,0L42,308.5l-27.1,83.8l83.8-27.1L367.9,95.9C383.5,80.3,383.5,54.9,367.9,39.3z     M39.8,367.3l12.8-39.6l26.8,26.8L39.8,367.3z M94.3,346.8l-33.9-34L299.9,73.3l34,34L94.3,346.8z M356.6,84.6l-11.3,11.3l-34-34    l11.3-11.3c9.4-9.4,24.6-9.4,34,0C366,60,366,75.2,356.6,84.6z" fill="#9f8998"/>
	</g>
</g>
<g>
</g>
<g>
</g>
<g>
</g>
<g>
</g>
<g>
</g>
<g>
</g>
<g>
</g>
<g>
</g>
<g>
</g>
<g>
</g>
<g>
</g>
<g>
</g>
<g>
</g>
<g>
</g>
<g>
</g>
</svg>
