<?xml version="1.0" encoding="UTF-8"?>
<!DOCTYPE svg PUBLIC "-//W3C//DTD SVG 1.1//EN" "http://www.w3.org/Graphics/SVG/1.1/DTD/svg11.dtd">
<!-- Creator: CorelDRAW 2017 -->
<svg xmlns="http://www.w3.org/2000/svg" xml:space="preserve" width="115.279mm" height="131.459mm" version="1.1" style="shape-rendering:geometricPrecision; text-rendering:geometricPrecision; image-rendering:optimizeQuality; fill-rule:evenodd; clip-rule:evenodd"
viewBox="0 0 2675 3051"
 xmlns:xlink="http://www.w3.org/1999/xlink">
 <defs>
  <style type="text/css">
   <![CDATA[
    .fil0 {fill:#9F8998;fill-rule:nonzero}
   ]]>
  </style>
 </defs>
 <g id="Слой_x0020_1">
  <metadata id="CorelCorpID_0Corel-Layer"/>
  <path class="fil0" d="M92 971c-26,19 -62,14 -81,-12 -19,-26 -14,-62 12,-81l1164 -867c21,-16 50,-15 70,1l1163 866c26,19 31,55 12,81 -19,26 -55,31 -81,12l-1130 -841 -1130 841z"/>
  <path class="fil0" d="M80 2661c-2,0 -4,0 -5,0 -32,0 -58,-26 -58,-58l0 -1435c0,-20 10,-38 26,-48l1144 -863c21,-16 51,-15 71,1l1146 864c15,11 23,29 23,46l0 0 0 1364c0,32 -26,58 -58,58 -32,0 -58,-26 -58,-58l0 -1336 -1089 -821 -1089 821 0 1348 1900 -6c32,0 58,26 58,58 0,32 -26,58 -58,58l-1953 6z"/>
  <path class="fil0" d="M1317 1070c178,0 340,72 456,189 117,117 189,278 189,456 0,178 -72,340 -189,456 -117,117 -278,189 -456,189 -178,0 -340,-72 -456,-189 -117,-117 -189,-278 -189,-456 0,-178 72,-340 189,-456 117,-117 278,-189 456,-189zm374 271c-96,-96 -228,-155 -374,-155 -146,0 -279,59 -374,155 -96,96 -155,228 -155,374 0,146 59,279 155,374 96,96 228,155 374,155 146,0 279,-59 374,-155 96,-96 155,-228 155,-374 0,-146 -59,-279 -155,-374z"/>
  <path class="fil0" d="M1607 2242c-22,-23 -22,-60 1,-82 23,-22 60,-22 82,1l728 749 119 -121 -730 -751c-22,-23 -22,-60 1,-82 23,-22 60,-22 82,1l770 792c22,22 22,58 0,81l-201 205c-23,22 -60,22 -82,-1l-770 -792z"/>
  <path class="fil0" d="M1555 1950c22,-23 59,-23 82,-1 23,22 23,59 1,82 -42,42 -92,77 -147,100 -54,22 -112,35 -174,35 -59,0 -115,-11 -167,-32 -53,-21 -102,-53 -143,-93 -23,-22 -24,-59 -2,-82 22,-23 59,-24 82,-2 30,29 66,52 107,69 38,15 80,24 124,24 46,0 89,-9 129,-26 41,-17 79,-43 109,-74z"/>
 </g>
</svg>
