<?xml version="1.0" standalone="no"?>
<!DOCTYPE svg PUBLIC "-//W3C//DTD SVG 20010904//EN"
 "http://www.w3.org/TR/2001/REC-SVG-20010904/DTD/svg10.dtd">
<svg version="1.0" xmlns="http://www.w3.org/2000/svg"
 width="890.000000pt" height="890.000000pt" viewBox="0 0 890.000000 890.000000"
 preserveAspectRatio="xMidYMid meet">
<metadata>
Created by potrace 1.11, written by Peter Selinger 2001-2013
</metadata>
<g transform="translate(0.000000,890.000000) scale(0.100000,-0.100000)"
fill="#000000" stroke="none">
<path d="M4359 8824 c-68 -40 -131 -77 -139 -81 -8 -4 -55 -31 -103 -60 -48
-29 -89 -53 -91 -53 -2 0 -34 -18 -71 -41 -37 -22 -82 -49 -99 -58 -74 -42
-504 -296 -538 -317 -21 -13 -40 -24 -43 -24 -4 0 -26 -13 -50 -30 -24 -16
-46 -30 -50 -30 -3 0 -30 -16 -60 -35 -30 -19 -55 -31 -55 -27 0 4 -4 2 -8 -4
-4 -5 -74 -50 -157 -98 -82 -48 -157 -91 -165 -97 -8 -5 -78 -45 -155 -90 -77
-45 -151 -88 -165 -97 -14 -9 -27 -15 -30 -15 -3 1 -12 -4 -20 -11 -23 -20
-548 -326 -559 -326 -5 0 -11 -4 -13 -8 -1 -4 -25 -21 -53 -36 -50 -29 -112
-65 -480 -281 -110 -65 -216 -127 -235 -138 -19 -10 -47 -28 -62 -39 -16 -11
-28 -16 -28 -11 0 4 -4 3 -8 -3 -4 -5 -69 -46 -144 -90 l-138 -79 3 -3285 2
-3285 68 -1 67 0 1 30 c0 17 1 1477 1 3244 l1 3213 36 22 c20 12 46 27 56 34
45 27 329 194 380 223 55 32 240 140 255 150 8 5 33 19 55 31 22 12 42 25 45
28 3 4 16 12 30 19 14 7 41 22 60 33 193 116 491 289 499 289 5 0 11 3 13 8 4
9 126 82 139 82 5 0 9 5 9 10 0 6 4 10 8 10 8 0 122 64 235 133 34 21 70 40
80 43 9 4 17 10 17 15 0 5 4 9 10 9 5 0 54 26 107 58 54 32 118 70 143 84 25
14 108 63 185 108 77 46 153 90 170 99 16 9 32 19 35 22 3 3 28 18 55 34 66
37 138 79 200 116 28 16 57 33 65 36 8 4 20 11 25 15 15 13 536 318 543 318 3
0 13 6 21 14 9 8 39 26 66 41 28 14 75 41 105 60 30 18 57 32 60 30 3 -1 141
-84 308 -184 167 -99 307 -181 313 -181 5 0 9 -4 9 -10 0 -5 4 -10 9 -10 7 0
126 -69 221 -129 14 -8 27 -16 30 -16 3 -1 30 -16 60 -35 30 -19 67 -42 81
-50 15 -8 123 -73 240 -143 258 -155 226 -136 329 -197 47 -27 90 -53 96 -57
11 -9 27 -18 129 -77 39 -22 72 -44 73 -48 2 -4 7 -8 12 -8 6 0 362 -210 545
-322 17 -10 41 -23 55 -30 14 -7 27 -15 30 -18 3 -4 46 -30 95 -59 120 -69
129 -75 135 -81 10 -10 65 -41 83 -47 9 -3 17 -9 17 -14 0 -5 4 -9 10 -9 5 0
64 -33 130 -72 67 -40 133 -80 148 -89 15 -9 101 -60 192 -115 91 -54 174
-104 185 -110 11 -5 39 -22 61 -36 l41 -27 0 -3208 0 -3209 -2796 0 c-1538 1
-2805 0 -2817 -2 -16 -3 -20 -10 -18 -40 1 -20 3 -52 3 -69 l1 -33 2885 0
2885 0 0 3323 0 3322 -152 90 c-83 50 -156 92 -162 94 -5 2 -15 8 -21 13 -5 5
-125 77 -265 160 -140 83 -271 161 -290 173 -19 12 -80 49 -135 80 -55 32
-102 61 -105 65 -3 3 -21 14 -40 23 -19 10 -91 51 -158 92 -68 41 -128 75
-133 75 -5 0 -9 5 -9 10 0 6 -4 10 -9 10 -4 0 -95 52 -201 115 -105 64 -206
123 -222 133 -17 9 -38 22 -47 27 -9 6 -74 45 -146 88 -71 43 -137 82 -145 87
-35 22 -157 94 -175 104 -16 9 -267 159 -337 201 -9 5 -29 17 -45 26 -15 9
-165 98 -331 197 -167 100 -308 182 -313 182 -5 0 -9 5 -9 10 0 6 -4 10 -8 10
-9 0 -229 128 -272 159 -46 32 -54 31 -181 -45z"/>
<path d="M5677 6885 c-1 -2 -29 -5 -62 -9 -161 -16 -296 -61 -398 -130 -21
-14 -40 -26 -42 -26 -16 0 -215 -194 -215 -210 0 -5 -6 -15 -13 -22 -18 -18
-90 -158 -81 -158 3 0 2 -6 -3 -12 -12 -15 -50 -131 -57 -173 -2 -16 -5 -30
-6 -30 -1 0 -3 -9 -5 -20 -27 -178 -27 -451 1 -630 12 -76 37 -211 42 -225 3
-8 6 -22 8 -30 2 -9 10 -45 19 -80 9 -36 18 -76 21 -90 4 -23 30 -113 57 -200
6 -19 12 -39 13 -45 1 -5 10 -32 19 -59 9 -26 18 -56 20 -65 2 -9 13 -47 25
-86 12 -38 22 -74 24 -80 1 -5 9 -30 16 -55 18 -61 17 -57 34 -126 17 -69 25
-105 32 -149 3 -16 7 -36 10 -44 2 -8 7 -37 10 -65 3 -28 7 -62 10 -76 26
-149 25 -576 -2 -730 -12 -71 -30 -152 -34 -157 -2 -2 -3 -6 -4 -10 -12 -46
-29 -98 -42 -130 -9 -21 -16 -39 -16 -40 2 -6 -63 -133 -96 -188 -77 -129
-148 -214 -282 -339 -99 -93 -374 -238 -599 -315 -52 -18 -102 -34 -110 -36
-9 -2 -46 -13 -84 -24 -37 -11 -68 -20 -70 -19 -2 0 -140 -15 -147 -17 -3 -1
-30 -5 -60 -9 -30 -5 -64 -10 -75 -13 -11 -2 -56 -7 -100 -10 l-80 -6 34 32
c19 17 48 42 65 54 74 52 335 309 431 422 28 33 52 62 55 65 3 3 32 41 65 85
33 44 63 82 68 83 4 2 7 8 7 14 0 5 8 22 19 36 10 15 28 44 40 65 11 20 31 54
42 75 43 74 67 122 63 122 -3 0 3 12 14 28 16 24 46 89 47 102 0 3 4 10 8 17
22 35 130 340 142 403 2 8 8 35 15 60 17 63 35 163 47 255 11 94 0 275 -22
360 -13 50 -84 187 -117 224 -54 61 -129 120 -197 153 -102 49 -105 50 -186
64 -16 3 -49 9 -71 13 -47 9 -188 7 -255 -4 -131 -20 -301 -88 -394 -157 -5
-5 -37 -28 -70 -52 -96 -71 -217 -200 -290 -311 -22 -33 -42 -62 -45 -65 -8
-8 -34 -57 -75 -140 -75 -151 -213 -621 -240 -817 -2 -12 -6 -34 -9 -50 -12
-56 -16 -79 -21 -128 -3 -27 -7 -63 -10 -80 -2 -16 -7 -55 -10 -85 -4 -30 -8
-68 -10 -85 -2 -16 -6 -50 -9 -75 -9 -83 -21 -176 -31 -230 -2 -14 -7 -47 -10
-75 -7 -64 -16 -134 -21 -160 -2 -11 -6 -40 -9 -65 -6 -52 -12 -95 -21 -147
-4 -21 -8 -47 -10 -58 -1 -11 -3 -21 -4 -22 -2 -2 -3 -6 -4 -10 -6 -27 -19
-91 -22 -108 -14 -88 -94 -330 -149 -451 -18 -40 -31 -75 -27 -78 3 -3 0 -6
-6 -6 -7 0 -12 -6 -12 -13 0 -15 -43 -107 -73 -157 -12 -19 -22 -40 -23 -46
-4 -23 -211 -346 -234 -364 -4 -3 -11 -13 -16 -22 -26 -48 -290 -324 -359
-375 -17 -12 -43 -32 -59 -45 l-29 -22 39 -11 c34 -10 43 -9 74 10 19 12 42
24 50 27 14 5 139 93 190 133 78 63 285 283 343 365 37 52 70 100 74 106 29
38 107 182 160 294 76 159 185 435 198 503 2 9 7 21 10 27 8 13 104 382 130
500 2 8 17 67 34 131 16 64 32 138 35 165 2 27 7 56 10 64 5 16 16 101 21 160
2 19 4 35 5 35 1 0 4 9 5 20 2 20 11 73 21 130 9 51 54 247 69 298 8 26 11 47
8 47 -3 0 0 7 7 15 7 8 10 15 6 15 -3 0 -1 11 4 25 5 14 12 36 14 48 2 12 14
54 26 92 11 39 28 95 37 125 18 64 78 232 98 275 8 17 16 37 19 45 13 33 96
180 132 232 63 90 105 139 184 216 101 98 106 102 114 102 4 0 20 9 36 20 15
11 63 34 106 51 141 57 321 46 465 -27 27 -13 59 -32 70 -42 51 -42 89 -82 89
-91 0 -6 4 -11 9 -11 12 0 78 -134 87 -175 7 -38 9 -210 1 -250 -19 -111 -67
-268 -112 -370 -32 -72 -60 -130 -65 -135 -3 -3 -16 -27 -30 -55 -14 -27 -27
-52 -30 -55 -3 -3 -14 -21 -24 -40 -92 -166 -308 -463 -497 -685 -85 -100
-326 -331 -425 -407 -16 -13 -38 -31 -49 -41 -41 -37 -195 -137 -270 -176
l-78 -39 69 -22 c38 -12 80 -24 94 -26 14 -3 34 -8 45 -11 11 -3 29 -7 40 -9
21 -2 62 -10 105 -19 80 -17 411 -24 545 -11 173 16 216 21 293 36 31 6 71 14
87 16 17 3 54 12 84 21 29 8 59 16 65 18 6 1 18 5 26 8 8 3 44 16 80 28 132
44 346 151 421 210 20 16 40 29 43 29 7 0 21 10 55 40 9 8 35 28 56 44 45 33
230 217 258 256 159 224 223 357 276 580 18 77 34 169 33 195 -1 39 -2 92 -1
105 2 23 -11 231 -16 270 -3 19 -7 55 -10 80 -3 25 -7 52 -9 60 -1 8 -6 33
-11 55 -12 66 -55 225 -81 301 -23 71 -48 156 -65 227 -26 106 -51 208 -69
277 -13 51 -16 64 -54 232 -39 174 -47 213 -60 326 -3 23 -8 61 -12 85 -3 23
-7 53 -9 67 -3 24 -13 97 -20 150 -20 144 -26 383 -12 493 20 165 87 353 173
487 68 106 171 200 264 242 89 41 106 46 205 65 50 9 285 12 290 2 4 -5 10 -7
14 -5 10 7 70 -10 127 -34 24 -11 48 -20 52 -21 40 -7 178 -147 212 -215 79
-156 71 -325 -27 -521 -65 -132 -193 -266 -312 -328 -19 -9 -46 -28 -60 -41
l-25 -23 27 -11 c15 -5 39 -15 54 -21 112 -43 304 -42 442 2 57 19 163 74 217
114 57 43 154 144 154 161 0 7 4 14 8 16 11 4 59 116 68 158 8 41 4 155 -6
155 -1 0 -3 7 -5 16 -1 9 -14 33 -27 55 -14 21 -26 44 -27 49 -7 33 -113 88
-170 88 -7 0 -24 23 -36 51 -55 121 -153 226 -310 332 -72 48 -221 105 -365
138 -50 12 -264 28 -273 21z"/>
<path d="M5885 6458 c-58 -21 -70 -69 -35 -137 37 -74 85 -93 166 -66 20 6 59
60 58 80 0 40 -27 76 -76 104 -57 33 -68 35 -113 19z"/>
</g>
</svg>
